<svg width="7" height="12" viewBox="0 0 7 12" fill="none" xmlns="http://www.w3.org/2000/svg">
<path d="M1.99793 0.328385C2.42307 0.750588 6.57351 5.18534 6.57351 5.18534C6.68124 5.29089 6.76693 5.41748 6.82547 5.55751C6.884 5.69754 6.91417 5.84815 6.91417 6.00032C6.91417 6.1525 6.884 6.3031 6.82547 6.44314C6.76693 6.58317 6.68124 6.70975 6.57351 6.81531C6.57351 6.81531 2.42117 11.252 1.99793 11.6723C1.77465 11.8829 1.48138 12 1.17686 12C0.872347 12 0.579076 11.8829 0.355801 11.6723C0.244191 11.5692 0.155002 11.4436 0.093968 11.3034C0.0329336 11.1632 0.00140364 11.0116 0.00140364 10.8582C0.00140364 10.7049 0.0329336 10.5533 0.093968 10.4131C0.155002 10.2729 0.244191 10.1473 0.355801 10.0442L4.16561 6.00129L0.355801 1.95836C0.243777 1.85531 0.154233 1.72951 0.0929486 1.58908C0.031664 1.44865 1.69321e-09 1.2967 1.49257e-09 1.14305C1.29193e-09 0.989397 0.031664 0.837452 0.0929486 0.69702C0.154233 0.556587 0.243777 0.430787 0.355801 0.327739C0.579076 0.117063 0.872347 0 1.17686 0C1.48138 0 1.77465 0.11771 1.99793 0.328385Z" fill="#1D1D1D"/>
</svg>
