<svg width="28" height="18" viewBox="0 0 28 18" fill="none" xmlns="http://www.w3.org/2000/svg">
<path d="M25.9284 7.34975L6.3816 7.34975L10.6077 3.16608C10.9203 2.85666 11.0959 2.437 11.0959 1.99942C11.0959 1.56183 10.9203 1.14217 10.6077 0.83275C10.2952 0.523331 9.87126 0.349501 9.42923 0.349501C8.9872 0.349501 8.56328 0.523331 8.25072 0.832749L1.17965 7.83275C0.867091 8.14217 0.691498 8.56183 0.691497 8.99942C0.691498 9.437 0.867091 9.85666 1.17965 10.1661L8.25072 17.1661C8.56328 17.4755 8.9872 17.6493 9.42923 17.6493C9.87126 17.6493 10.2952 17.4755 10.6077 17.1661C10.9203 16.8567 11.0959 16.437 11.0959 15.9994C11.0959 15.5618 10.9203 15.1422 10.6077 14.8327L6.3816 10.6491L25.9278 10.6497C26.3647 10.6421 26.7812 10.465 27.0875 10.1565C27.3939 9.84793 27.5655 9.43262 27.5655 9C27.5655 8.56738 27.3939 8.15207 27.0875 7.84352C26.7812 7.53496 26.3647 7.35785 25.9278 7.35033L25.9284 7.34975Z" fill="#444444"/>
</svg>
