<svg width="16" height="16" viewBox="0 0 16 16" fill="none" xmlns="http://www.w3.org/2000/svg">
<path d="M14.667 1.5H12.5V0.5C12.5 0.367392 12.4473 0.240215 12.3536 0.146447C12.2598 0.0526784 12.1326 0 12 0C11.8674 0 11.7402 0.0526784 11.6464 0.146447C11.5527 0.240215 11.5 0.367392 11.5 0.5V1.5H8.5V0.5C8.5 0.367392 8.44732 0.240215 8.35355 0.146447C8.25979 0.0526784 8.13261 0 8 0C7.86739 0 7.74021 0.0526784 7.64645 0.146447C7.55268 0.240215 7.5 0.367392 7.5 0.5V1.5H4.5V0.5C4.5 0.367392 4.44732 0.240215 4.35355 0.146447C4.25979 0.0526784 4.13261 0 4 0C3.86739 0 3.74021 0.0526784 3.64645 0.146447C3.55268 0.240215 3.5 0.367392 3.5 0.5V1.5H1.3335C1.15841 1.49993 0.985014 1.53436 0.823229 1.60133C0.661445 1.66829 0.514437 1.76646 0.390603 1.89025C0.26677 2.01404 0.168537 2.16101 0.101516 2.32277C0.0344956 2.48453 -1.23175e-08 2.65791 0 2.833L0 14.6665C0 15.0202 0.140493 15.3593 0.390573 15.6094C0.640653 15.8595 0.979834 16 1.3335 16H14.667C14.8421 16 15.0155 15.9655 15.1772 15.8985C15.339 15.8315 15.486 15.7332 15.6097 15.6094C15.7335 15.4856 15.8317 15.3386 15.8987 15.1768C15.9656 15.015 16.0001 14.8416 16 14.6665V2.833C16.0001 2.65793 15.9656 2.48456 15.8987 2.32281C15.8317 2.16105 15.7335 2.01407 15.6097 1.89028C15.4859 1.76649 15.339 1.6683 15.1772 1.60133C15.0154 1.53437 14.8421 1.49993 14.667 1.5ZM15 14.6665C15 14.7549 14.9649 14.8396 14.9025 14.9021C14.8401 14.9647 14.7554 14.9999 14.667 15H1.3335C1.24505 15 1.16022 14.9649 1.09768 14.9023C1.03514 14.8398 1 14.7549 1 14.6665V2.833C1.00013 2.74464 1.03533 2.65994 1.09786 2.5975C1.16039 2.53507 1.24514 2.5 1.3335 2.5H3.5V3.5C3.5 3.63261 3.55268 3.75979 3.64645 3.85355C3.74021 3.94732 3.86739 4 4 4C4.13261 4 4.25979 3.94732 4.35355 3.85355C4.44732 3.75979 4.5 3.63261 4.5 3.5V2.5H7.5V3.5C7.5 3.63261 7.55268 3.75979 7.64645 3.85355C7.74021 3.94732 7.86739 4 8 4C8.13261 4 8.25979 3.94732 8.35355 3.85355C8.44732 3.75979 8.5 3.63261 8.5 3.5V2.5H11.5V3.5C11.5 3.63261 11.5527 3.75979 11.6464 3.85355C11.7402 3.94732 11.8674 4 12 4C12.1326 4 12.2598 3.94732 12.3536 3.85355C12.4473 3.75979 12.5 3.63261 12.5 3.5V2.5H14.667C14.7553 2.50013 14.8399 2.53526 14.9023 2.59768C14.9647 2.6601 14.9999 2.74472 15 2.833V14.6665ZM3.5 6H5.5V7.5H3.5V6ZM3.5 8.5H5.5V10H3.5V8.5ZM3.5 11H5.5V12.5H3.5V11ZM7 11H9V12.5H7V11ZM7 8.5H9V10H7V8.5ZM7 6H9V7.5H7V6ZM10.5 11H12.5V12.5H10.5V11ZM10.5 8.5H12.5V10H10.5V8.5ZM10.5 6H12.5V7.5H10.5V6Z" fill="#B6B6B6"/>
</svg>
