<svg width="30" height="30" viewBox="0 0 30 30" fill="none" xmlns="http://www.w3.org/2000/svg">
<path d="M15 30C12.0333 30 9.13319 29.1203 6.66645 27.472C4.19972 25.8238 2.27713 23.4811 1.14181 20.7403C0.00649929 17.9994 -0.290551 14.9834 0.288228 12.0737C0.867006 9.16394 2.29562 6.49119 4.3934 4.3934C6.49119 2.29562 9.16394 0.867006 12.0737 0.288228C14.9834 -0.290551 17.9994 0.00649929 20.7403 1.14181C23.4811 2.27713 25.8238 4.19972 27.472 6.66645C29.1203 9.13319 30 12.0333 30 15C30 18.9783 28.4197 22.7936 25.6066 25.6066C22.7936 28.4197 18.9783 30 15 30ZM21.8781 10.6258C22.0134 10.4903 22.0895 10.3067 22.0895 10.1152C22.0895 9.92372 22.0134 9.74007 21.8781 9.60462L20.3458 8.07693C20.2103 7.94158 20.0267 7.86554 19.8352 7.86554C19.6437 7.86554 19.4601 7.94158 19.3246 8.07693L14.985 12.4165L10.6454 8.07693C10.5099 7.94158 10.3263 7.86554 10.1348 7.86554C9.94333 7.86554 9.75968 7.94158 9.62424 8.07693L8.09193 9.60808C7.95658 9.74353 7.88054 9.92718 7.88054 10.1187C7.88054 10.3101 7.95658 10.4938 8.09193 10.6292L12.4327 14.97L8.09193 19.3085C7.95658 19.4439 7.88054 19.6276 7.88054 19.819C7.88054 20.0105 7.95658 20.1942 8.09193 20.3296L9.62424 21.8619C9.75968 21.9973 9.94333 22.0733 10.1348 22.0733C10.3263 22.0733 10.5099 21.9973 10.6454 21.8619L14.985 17.5212L19.3246 21.8619C19.4601 21.9973 19.6437 22.0733 19.8352 22.0733C20.0267 22.0733 20.2103 21.9973 20.3458 21.8619L21.8781 20.3296C22.0134 20.1942 22.0895 20.0105 22.0895 19.819C22.0895 19.6276 22.0134 19.4439 21.8781 19.3085L17.5385 14.9665L21.8792 10.6258H21.8781Z" fill="#B6B6B6"/>
</svg>
