<svg width="24" height="24" viewBox="0 0 24 24" fill="none" xmlns="http://www.w3.org/2000/svg">
<g clip-path="url(#clip0)">
<path d="M12 24C14.3734 24 16.6935 23.2962 18.6668 21.9776C20.6402 20.6591 22.1783 18.7849 23.0866 16.5922C23.9948 14.3995 24.2324 11.9867 23.7694 9.65892C23.3064 7.33115 22.1635 5.19295 20.4853 3.51472C18.8071 1.83649 16.6689 0.693605 14.3411 0.230582C12.0133 -0.232441 9.60051 0.00519937 7.4078 0.913451C5.21509 1.8217 3.34094 3.35977 2.02236 5.33316C0.703788 7.30655 0 9.62663 0 12C0 15.1826 1.26428 18.2349 3.51472 20.4853C5.76516 22.7357 8.8174 24 12 24ZM12 2.25001C13.9284 2.25001 15.8134 2.82183 17.4168 3.89318C19.0202 4.96452 20.2699 6.48726 21.0078 8.26884C21.7458 10.0504 21.9389 12.0108 21.5627 13.9021C21.1865 15.7935 20.2579 17.5307 18.8943 18.8943C17.5307 20.2579 15.7934 21.1865 13.9021 21.5627C12.0108 21.9389 10.0504 21.7458 8.26884 21.0078C6.48726 20.2699 4.96452 19.0202 3.89317 17.4168C2.82183 15.8134 2.25 13.9284 2.25 12C2.25 9.41414 3.27723 6.93419 5.10571 5.10571C6.93419 3.27723 9.41414 2.25001 12 2.25001ZM6 7.50001C6 7.20333 6.08797 6.91332 6.2528 6.66665C6.41762 6.41998 6.65189 6.22772 6.92597 6.11419C7.20006 6.00065 7.50166 5.97095 7.79264 6.02883C8.08361 6.08671 8.35088 6.22957 8.56066 6.43935C8.77044 6.64912 8.9133 6.9164 8.97118 7.20737C9.02906 7.49834 8.99935 7.79994 8.88582 8.07403C8.77229 8.34812 8.58003 8.58239 8.33335 8.74721C8.08668 8.91203 7.79667 9.00001 7.5 9.00001C7.10218 9.00001 6.72064 8.84197 6.43934 8.56067C6.15804 8.27936 6 7.89783 6 7.50001ZM15 7.50001C15 7.20333 15.088 6.91332 15.2528 6.66665C15.4176 6.41998 15.6519 6.22772 15.926 6.11419C16.2001 6.00065 16.5017 5.97095 16.7926 6.02883C17.0836 6.08671 17.3509 6.22957 17.5607 6.43935C17.7704 6.64912 17.9133 6.9164 17.9712 7.20737C18.0291 7.49834 17.9994 7.79994 17.8858 8.07403C17.7723 8.34812 17.58 8.58239 17.3334 8.74721C17.0867 8.91203 16.7967 9.00001 16.5 9.00001C16.1022 9.00001 15.7206 8.84197 15.4393 8.56067C15.158 8.27936 15 7.89783 15 7.50001Z" fill="#1DAFEC"/>
<path d="M15.8403 12.6591C15.4183 12.2371 14.846 12 14.2492 12C13.6524 12 13.0801 12.2371 12.6581 12.6591C12.2361 13.0811 11.999 13.6534 11.999 14.2502C11.999 14.847 12.2361 15.4193 12.6581 15.8413C12.6866 15.8698 12.7151 15.8968 12.7443 15.9231C14.7746 17.7628 19.4996 15.8796 19.4996 13.4998C18.0461 14.4373 16.9106 13.7293 15.8403 12.6591Z" fill="#1DAFEC"/>
<path d="M8.15925 12.6591C8.58124 12.2371 9.15359 12 9.75037 12C10.0459 12 10.3385 12.0582 10.6115 12.1713C10.8845 12.2844 11.1325 12.4501 11.3415 12.6591C11.5504 12.868 11.7162 13.1161 11.8293 13.3891C11.9424 13.6621 12.0006 13.9547 12.0006 14.2502C12.0006 14.5457 11.9424 14.8383 11.8293 15.1113C11.7162 15.3843 11.5504 15.6324 11.3415 15.8413C11.313 15.8698 11.2845 15.8968 11.2552 15.9231C9.225 17.7628 4.5 15.8796 4.5 13.4998C5.9535 14.4373 7.089 13.7293 8.15925 12.6591Z" fill="#1DAFEC"/>
</g>
<defs>
<clipPath id="clip0">
<rect width="24" height="24" fill="white"/>
</clipPath>
</defs>
</svg>
