<svg width="20" height="16" viewBox="0 0 20 16" fill="none" xmlns="http://www.w3.org/2000/svg">
<path d="M10.0001 2C4.477 2 0.00012207 8.25 0.00012207 8.25C0.00012207 8.25 4.477 14.5 10.0001 14.5C15.5232 14.5 20.0001 8.25 20.0001 8.25C20.0001 8.25 15.5232 2 10.0001 2ZM10.0001 12C9.25844 12 8.53342 11.7801 7.91673 11.368C7.30005 10.956 6.8194 10.3703 6.53557 9.68506C6.25175 8.99984 6.17748 8.24584 6.32218 7.51841C6.46687 6.79098 6.82402 6.1228 7.34847 5.59835C7.87292 5.0739 8.5411 4.71675 9.26853 4.57206C9.99596 4.42736 10.75 4.50162 11.4352 4.78545C12.1204 5.06928 12.7061 5.54993 13.1181 6.16661C13.5302 6.7833 13.7501 7.50832 13.7501 8.25C13.7501 9.24456 13.355 10.1984 12.6518 10.9017C11.9485 11.6049 10.9947 12 10.0001 12ZM10.0001 5.75C9.50567 5.75 9.02232 5.89662 8.6112 6.17133C8.20007 6.44603 7.87964 6.83648 7.69042 7.29329C7.5012 7.75011 7.4517 8.25277 7.54816 8.73773C7.64462 9.22268 7.88272 9.66814 8.23236 10.0178C8.58199 10.3674 9.02744 10.6055 9.5124 10.702C9.99735 10.7984 10.5 10.7489 10.9568 10.5597C11.4136 10.3705 11.8041 10.05 12.0788 9.63893C12.3535 9.2278 12.5001 8.74445 12.5001 8.25C12.5001 7.58696 12.2367 6.95107 11.7679 6.48223C11.299 6.01339 10.6632 5.75 10.0001 5.75Z" fill="#1D1D1D"/>
<rect x="3.41443" y="0.353553" width="20.1262" height="1.5" transform="rotate(45 3.41443 0.353553)" fill="#1D1D1D" stroke="white" stroke-width="0.5"/>
</svg>
