<?xml version="1.0" encoding="utf-8"?>
<!-- Generator: Adobe Illustrator 16.0.0, SVG Export Plug-In . SVG Version: 6.00 Build 0)  -->
<!DOCTYPE svg PUBLIC "-//W3C//DTD SVG 1.1//EN" "http://www.w3.org/Graphics/SVG/1.1/DTD/svg11.dtd">
<svg version="1.1" id="Layer_1" xmlns="http://www.w3.org/2000/svg" xmlns:xlink="http://www.w3.org/1999/xlink" x="0px" y="0px"
	 width="20px" height="20px" viewBox="0 0 20 20" enable-background="new 0 0 20 20" xml:space="preserve">
<path fill="#209DE2" d="M10,0C6.123,0,2.969,3.154,2.969,7.031c0,1.31,0.363,2.588,1.05,3.697L9.6,19.723
	C9.707,19.896,9.895,20,10.098,20c0.001,0,0.003,0,0.005,0c0.204-0.002,0.393-0.109,0.497-0.285l5.439-9.081
	c0.648-1.086,0.992-2.332,0.992-3.603C17.031,3.154,13.877,0,10,0z M15.033,10.032l-4.944,8.257l-5.075-8.178
	c-0.571-0.923-0.881-1.988-0.881-3.08C4.133,3.8,6.769,1.164,10,1.164c3.23,0,5.863,2.636,5.863,5.867
	C15.863,8.091,15.574,9.128,15.033,10.032z"/>
<path fill="#209DE2" d="M10,3.516c-1.938,0-3.516,1.577-3.516,3.516c0,1.926,1.551,3.516,3.516,3.516
	c1.988,0,3.516-1.611,3.516-3.516C13.516,5.093,11.938,3.516,10,3.516z M10,9.383c-1.299,0-2.352-1.056-2.352-2.352
	c0-1.292,1.06-2.351,2.352-2.351c1.293,0,2.348,1.059,2.348,2.352C12.348,8.308,11.32,9.383,10,9.383z"/>
</svg>
