<svg width="10" height="10" viewBox="0 0 10 10" fill="none" xmlns="http://www.w3.org/2000/svg">
<path d="M10 5C10 5.46094 9.9599 5.83333 9.49896 5.83333H5.83333V9.49896C5.83333 9.95885 5.46094 10 5 10C4.53906 10 4.16667 9.95938 4.16667 9.49896V5.83333H0.501042C0.0411458 5.83333 0 5.46094 0 5C0 4.53906 0.0406249 4.16667 0.501042 4.16667H4.16667V0.501042C4.16667 0.0401041 4.53906 0 5 0C5.46094 0 5.83333 0.0401041 5.83333 0.501042V4.16667H9.49896C9.9599 4.16667 10 4.53906 10 5Z" fill="white"/>
</svg>
