<?xml version="1.0" encoding="utf-8"?>
<!-- Generator: Adobe Illustrator 16.0.0, SVG Export Plug-In . SVG Version: 6.00 Build 0)  -->
<!DOCTYPE svg PUBLIC "-//W3C//DTD SVG 1.1//EN" "http://www.w3.org/Graphics/SVG/1.1/DTD/svg11.dtd">
<svg version="1.1" id="Layer_2" xmlns="http://www.w3.org/2000/svg" xmlns:xlink="http://www.w3.org/1999/xlink" x="0px" y="0px"
	 width="795px" height="676.466px" viewBox="0 0 795 676.466" enable-background="new 0 0 795 676.466" xml:space="preserve">
<g>
	<g>
		<defs>
			<rect id="SVGID_1_" x="476" y="62.393" width="319" height="528"/>
		</defs>
		<clipPath id="SVGID_2_">
			<use xlink:href="#SVGID_1_"  overflow="visible"/>
		</clipPath>
		<g clip-path="url(#SVGID_2_)">
			<ellipse fill="#E6E6E6" cx="635.906" cy="560.586" rx="102.275" ry="13.403"/>
			<path fill="#B28B67" d="M641.037,216.04l-13.694-39.453c4.165-6.289,6.601-13.67,5.093-21.417
				c-4.349-22.324-35.184-13.507-39.908-1.389c-4.723,12.117-0.457,40.858,7.697,41.918c3.252,0.423,9.724-2.386,16.055-7.334
				l-0.577,30.786L641.037,216.04z"/>
			<path fill="#191847" d="M615.965,187.152c1.073-5.333-0.09-20.164-0.467-24.541c0.248-0.061,0.5-0.107,0.754-0.138
				c0.83-0.104,1.672-0.042,2.479,0.18c0.807,0.222,1.562,0.601,2.222,1.115c0.659,0.514,1.212,1.153,1.625,1.881
				c0.413,0.727,0.679,1.529,0.782,2.359c0.104,0.843,0.037,1.697-0.194,2.513c-0.233,0.817-0.627,1.578-1.159,2.239
				c1.719,1.878,3.624,3.834,5.779,5.826c6.55-5.097,10.275-18.121,1.906-29.164c-2.627-5.59-7.334-8.169-12.619-8.987
				c-4.008-1.176-8.293-0.967-12.168,0.594c-7.032,1.481-13.112,4.422-14.754,5.926c0.822,6.708,2.371,8.539,13.486,6.996
				c2.911,1.104,5.32,3.327,7.91,6.311c0.012,0.219,0.992,20.383-5.215,21.146c-6.24,0.766-12.02-2.536-14.758-2.2
				c-1.996,0.245-1.245,2.682,0.305,4.365c1.278,1.389,6.773,2.204,7.063,4.565c0.164,1.333-1.176,1.496-2.34,1.637
				c-0.898,0.11-1.694,0.208-1.621,0.815c0.285,2.317,0.078,6.761,4.112,6.266C603.176,196.356,614.698,193.436,615.965,187.152z"/>
			<path fill="#997659" d="M658.895,305.293l-38.951,133.83L601.622,539.6h-18.388l18.355-234.307H658.895z"/>
			<path fill="#B28B67" d="M676.398,305.293c-2.719,69.522-1.647,107.445-1.039,113.761c0.609,6.313,4.065,48.62,27.595,122.671
				h-19.126c-31.164-71.039-42.043-113.343-45.621-122.671c-3.577-9.329-14.127-47.249-29.539-113.761H676.398z"/>
			<path fill="#69A1AC" d="M659.73,305.293c-10.133,46.051-27.655,119.56-52.57,220.527h-26.895
				c-1.99-103.634,6.463-171.842,21.096-220.527H659.73z"/>
			<path fill="#89C5CC" d="M676.534,305.293c-2.662,69.522,4.235,138.018,25.604,221.611h-28.695
				c-31.223-69.98-53.6-138.136-68.893-221.611H676.534z"/>
			<path fill="#191847" d="M705.68,555.506l-0.994-16.057c-0.018-0.253-0.123-0.491-0.302-0.674
				c-0.178-0.182-0.413-0.293-0.667-0.314l-22.308-2.038l-38.259,14.161c-0.502,0.185-0.914,0.552-1.155,1.026
				c-0.242,0.477-0.296,1.026-0.149,1.539l1.575,5.538h60.149L705.68,555.506z"/>
			<path fill="#191847" d="M605.727,555.506l-0.996-16.057c-0.016-0.253-0.121-0.491-0.299-0.674
				c-0.179-0.182-0.414-0.293-0.668-0.314l-22.308-2.038l-38.259,14.161c-0.501,0.185-0.914,0.552-1.156,1.026
				c-0.242,0.477-0.295,1.026-0.149,1.539l1.575,5.538h60.15L605.727,555.506z"/>
			<path fill="#B28B67" d="M743.948,368.32c1.091-0.854,2.054-3.69-1.321-5.399c-8.404-4.256-20.715-11.998-22.596-14.817
				c-3.846-5.76-21.723-64.314-21.723-64.314l-22.045,2.792c0,0,28.346,62.026,30.459,65.775c3.17,5.624-0.892,15.279-2.507,20.398
				c3.671,1.098,5.054-1.049,6.583-3.213c1.635-2.309,3.443-4.637,8.391-3.08c6.33,1.994,11.815,5.719,17.727,4.992
				C739.506,371.084,741.941,370,743.948,368.32z M546.918,333.547l31.678-17.624l-9.65-17.09l-30.697,28.33
				c-8.836,3.532-16.096,7.47-21.783,11.812c-1.289,1.468-2.717,4.296,3.229,3.108c5.945-1.188,12.255-2.174,13.328-0.276
				c1.074,1.897-2.264,4.743-0.258,7.239c0.09,0.115,0.211,0.205,0.348,0.257s0.285,0.065,0.43,0.04
				C535.515,349.099,539.974,343.834,546.918,333.547z"/>
			<path fill="#E87613" d="M624.512,200.911l-9.312-0.413c-30.345,32.776-37.513,89.466-75.439,123.688l11.474,10.893
				C622.156,317.521,631.779,248.262,624.512,200.911z"/>
			<path fill="#DDE3E9" d="M678.072,308.268l-80.754,9.92c-3.69,0.454-3.635-4.846-3.424-7.543
				c2.424-31.124,22.443-66.811,17.138-110.039l22.854-6.436C656.874,222.128,668.119,258.644,678.072,308.268z"/>
			<path fill="#FF9B21" d="M720.336,347.114c-5.372-59.187-33.751-101.754-56.195-126.765c4.201-0.817,7.814-3.022,9.709-7.59
				c6.668-16.079,2.577-23.979-6.855-25.582c-9.434-1.603-16.859,4.996-31.355,6.777c-0.578,0.068-1.152,0.18-1.714,0.334
				l-7.677,1.381c0,0-18.607,107.942-0.268,141.017l63.83-7.841c3.979,7.063,8.387,13.875,13.201,20.397L720.336,347.114z"/>
			<path fill-opacity="0.1" d="M665.958,331.776l23.856-2.93c-5.638-9.746-12.022-21.854-18.977-35.987
				C670.932,311.323,669.289,324.413,665.958,331.776L665.958,331.776z"/>
		</g>
	</g>
	<g>
		<defs>
			
				<rect id="SVGID_3_" x="71.827" y="-16.229" transform="matrix(-0.9743 0.2254 -0.2254 -0.9743 642.8215 580.8141)" width="432.848" height="686.671"/>
		</defs>
		<clipPath id="SVGID_4_">
			<use xlink:href="#SVGID_3_"  overflow="visible"/>
		</clipPath>
		<g clip-path="url(#SVGID_4_)">
			<g>
				<path fill="#F2F2F2" d="M305.408,41.013L112.704,85.601c-21.781,5.04-35.351,26.792-30.309,48.584l110.987,479.663
					c5.042,21.792,26.787,35.373,48.568,30.333l192.704-44.589c21.78-5.04,35.351-26.791,30.309-48.583L353.977,71.345
					C348.934,49.553,327.189,35.973,305.408,41.013z"/>
			</g>
			<path fill="#2F80ED" d="M432.188,586.841l-194.406,44.981c-3.453,0.803-7.03,0.915-10.527,0.333
				c-3.497-0.583-6.845-1.849-9.852-3.727c-3.008-1.879-5.615-4.332-7.674-7.219c-2.06-2.888-3.529-6.152-4.326-9.608
				L94.009,130.186c-0.802-3.455-0.916-7.034-0.334-10.532c0.582-3.498,1.847-6.847,3.723-9.856
				c1.877-3.008,4.328-5.616,7.213-7.676c2.887-2.059,6.15-3.529,9.604-4.325l31.055-7.186l1.014,4.386
				c0.447,1.959,1.279,3.811,2.447,5.447c1.168,1.636,2.648,3.024,4.355,4.084c1.702,1.069,3.598,1.79,5.58,2.12
				c1.982,0.331,4.009,0.266,5.966-0.192l103.247-23.89c1.959-0.448,3.809-1.28,5.444-2.447c1.635-1.168,3.022-2.649,4.081-4.357
				c1.068-1.702,1.789-3.599,2.119-5.582c0.33-1.982,0.264-4.011-0.194-5.968l-1.015-4.385l30.308-7.013
				c3.453-0.802,7.03-0.915,10.527-0.333c3.497,0.583,6.845,1.849,9.852,3.729c3.008,1.878,5.616,4.331,7.675,7.218
				c2.06,2.887,3.529,6.152,4.325,9.608l111.393,481.417c0.803,3.453,0.916,7.032,0.334,10.531c-0.58,3.498-1.847,6.848-3.723,9.855
				c-1.877,3.008-4.329,5.617-7.214,7.676C438.905,584.575,435.642,586.044,432.188,586.841z"/>
			<path fill="#EACBAF" d="M278.488,224.411l6.889-36.719c-4.508-5.005-7.634-11.202-7.324-18.254
				c0.896-20.322,29.295-16.644,35.064-6.565c5.769,10.079,5.797,36.074-1.267,38.1c-2.815,0.808-8.903-0.811-15.147-4.34
				l4.572,27.146L278.488,224.411z"/>
			<path fill="#191847" d="M303.813,151.968c-3.123-0.778-6.35-1.045-9.558-0.789c1.027-2.641,1.353-5.504,0.942-8.307
				c-0.565-2.606-1.538-5.105-2.885-7.404c-0.502-1.131-1.203-2.162-2.071-3.043c-0.917-0.834-2.046-1.4-3.261-1.638
				c-1.229-0.235-2.492-0.2-3.705,0.102c-0.536,0.128-1.014,0.387-1.537,0.538c-0.525,0.152-0.811-0.175-1.211-0.501
				c-1.045-0.756-2.281-1.199-3.568-1.277c-1.361-0.105-2.73,0.095-4.006,0.589c-1.27,0.452-2.402,1.222-3.29,2.237
				c-0.404,0.465-0.728,0.993-0.961,1.563c-0.091,0.235-0.103,0.375-0.334,0.467c-0.211,0.085-0.466,0.094-0.687,0.176
				c-1.08,0.412-2.066,1.036-2.904,1.835c-0.836,0.8-1.504,1.758-1.967,2.82c-0.621,1.903-0.834,3.915-0.629,5.906
				c0.141,2.455,2.526,8.79,4.666,11.067c1.989,1.997,4.536,3.342,7.305,3.86c-1.643,2.115-2.857,4.53-3.576,7.11
				c-0.86,2.778-1.364,5.654-1.498,8.558c-0.211,2.81,0.008,5.635,0.648,8.378c0.272,1.205,0.787,2.342,1.515,3.34
				c0.726,0.999,1.649,1.838,2.71,2.467c1.015,0.555,2.076,1.018,3.173,1.384c1.056,0.405,2.144,0.722,3.252,0.948
				c2.108,0.375,4.522,0.235,6.097-1.477c0.613-0.649,1.149-1.368,1.596-2.141c0.146-0.268,0.234-0.443,0.043-0.697
				c-0.266-0.289-0.564-0.545-0.889-0.764c-1.666-1.313-2.754-3.224-3.035-5.329c-0.316-2.212,0.205-5.095,2.342-6.123
				c2.634-1.27,5.609,0.023,8.015,1.237c0.369-1.771,1.103-3.446,2.151-4.919c1.051-1.473,2.396-2.711,3.949-3.635
				c3.541-1.902,7.653-2.226,11.301-3.875c0.99-0.376,1.881-0.979,2.599-1.76c0.33-0.364,0.578-0.795,0.728-1.263
				c0.02-0.284-0.021-0.568-0.119-0.835c-0.099-0.266-0.251-0.509-0.45-0.712C313.061,157.645,306.95,152.83,303.813,151.968z"/>
			<path fill="#EACBAF" d="M273.549,299.032l54.23,124.717l39.389,104.706l10.896,1.232L317.75,304.034L273.549,299.032z"/>
			<path fill="#191847" d="M363.718,522.03c-0.225-0.105-0.469-0.164-0.718-0.173c-0.249-0.008-0.497,0.036-0.728,0.128
				c-0.232,0.092-0.442,0.23-0.618,0.406c-0.178,0.176-0.315,0.387-0.407,0.619l-2.435,6.004c-0.15,2.454-0.152,4.916-0.005,7.371
				l51.219,5.796c0,0,2.755-6.477-1.486-7.498c-4.241-1.021-7.038-1.774-7.038-1.774l-22.586-13.469
				c-0.105-0.062-0.222-0.103-0.344-0.119c-0.121-0.016-0.245-0.007-0.363,0.026s-0.228,0.09-0.324,0.166
				c-0.096,0.077-0.175,0.173-0.232,0.281l-1.957,3.596c0,0-4.195,1.437-6.686,1.154L363.718,522.03z"/>
			<path fill="#A9D6D9" d="M354.91,511.017l21.761-4.219c0,0-8.961-44.413-23.181-98.138
				c-14.221-53.726-31.812-104.183-31.812-104.183l-59.35-6.716c0,0,18.729,63.43,41.785,116.147
				C318.933,447.346,335.901,479.784,354.91,511.017z"/>
			<path fill="#EACBAF" d="M269.114,298.53c-11.023,40.423-29.255,91.597-30.599,93.089c-0.895,0.993-22.377,6.66-79.315,18.722
				l2.437,12.146c66.54-2.395,93.235-7.141,97.369-12.146c6.2-7.511,39.828-68.58,54.501-106.787L269.114,298.53z"/>
			<path fill="#D0EDEF" d="M172.029,404.762l2.328,16.53c48.437,9.993,78.787,10.167,91.053,0.522
				c12.265-9.643,29.447-48.934,51.545-117.871l-56.594-6.404c-15.479,56.747-23.885,86.271-25.215,88.576
				C233.814,388.421,212.775,394.637,172.029,404.762z"/>
			<path fill="#EACBAF" d="M335.275,237.369l29.369-10.568c4.586-4.13,9.715-7.615,15.243-10.356
				c1.421-0.348,3.808-0.319,1.021,3.208s-5.563,7.368-4.634,8.731c0.928,1.363,3.957,0.134,4.973,2.323
				c0.678,1.458-4.384,2.803-15.187,4.033l-22.47,14.903L335.275,237.369z"/>
			<path fill="#F2C94C" d="M310.814,230.832c15.005,3.277,30.641,2.207,45.076-3.085l3.088,15.425
				c-13.519,8.449-31.069,13.932-44.536,10.481C303.827,250.934,301.313,236.771,310.814,230.832z"/>
			<path fill="#FFE8A3" d="M370.861,255.722l-23.981-56.231l48.223-16.61l19.737,59.61l-21.81,7.465L370.861,255.722z"/>
			<path fill="#F94D1E" d="M370.995,223.696c0.627,0.068,1.182,0.133,1.738,0.188c2.749,0.271,5.501,0.449,8.265,0.274
				c2.344-0.149,4.62-0.617,6.8-1.494c1.477-0.594,2.87-1.358,4.215-2.209c0.188-0.119,0.26-0.267,0.163-0.486
				c-0.118-0.268-0.238-0.538-0.327-0.817c-0.09-0.281-0.216-0.331-0.496-0.216c-2.076,0.854-4.159,1.693-6.242,2.533
				c-0.134,0.054-0.278,0.104-0.419,0.107c-0.276,0.006-0.489-0.14-0.556-0.406c-0.067-0.273,0.02-0.516,0.293-0.652
				c0.111-0.055,0.228-0.101,0.341-0.147c2.009-0.815,4.017-1.628,6.024-2.443c0.475-0.193,0.474-0.195,0.279-0.679
				c-0.095-0.23-0.168-0.47-0.29-0.685c-0.046-0.081-0.199-0.134-0.306-0.138c-0.104-0.003-0.21,0.071-0.314,0.114
				c-2.197,0.889-4.394,1.78-6.592,2.664c-0.162,0.065-0.348,0.124-0.518,0.112c-0.286-0.019-0.436-0.236-0.469-0.501
				c-0.036-0.292,0.12-0.496,0.388-0.604c0.909-0.372,1.819-0.739,2.729-1.108c1.4-0.568,2.801-1.142,4.206-1.699
				c0.269-0.107,0.364-0.228,0.219-0.498c-0.085-0.159-0.138-0.334-0.207-0.501c-0.239-0.581-0.155-0.577-0.788-0.321
				c-1.245,0.504-2.489,1.009-3.733,1.512c-0.827,0.334-1.652,0.673-2.481,0.999c-0.321,0.125-0.65-0.013-0.77-0.296
				c-0.116-0.275,0.033-0.609,0.34-0.75c0.093-0.043,0.188-0.078,0.281-0.117c1.998-0.81,3.995-1.619,5.992-2.429
				c0.508-0.205,0.508-0.206,0.299-0.723c-0.021-0.052-0.043-0.104-0.063-0.157c-0.357-0.884-0.253-0.834-1.158-0.634
				c-2.033,0.448-4.001,1.091-5.849,2.063c-2.273,1.195-4.281,2.758-6.048,4.605c-1.634,1.707-3.17,3.508-4.748,5.269
				C371.141,223.483,371.1,223.551,370.995,223.696z"/>
			<path fill="none" stroke="#FFE8A3" stroke-width="5" d="M353.602,198.598c1.332-10.148,9.998-34.729,34.954-11.492"/>
			<path fill="#EACBAF" d="M381.717,251.74l11.997-6.657c0,0,2.489-9.632,6.007-9.708c1.798-0.847-1.303,7.273,2.108,6.554
				c3.411-0.72,11.731-6.957,13.176-5.705c2.135,1.855,0.267,7.576-1.955,10.431c-4.147,5.334-7.603,7.168-16.134,9.589
				c-6.693,1.897-14.457,7.551-14.457,7.551L381.717,251.74z"/>
			<path fill="#F2C94C" d="M278.157,338.723c-11.605-1.186-22.405-2.393-28.62-0.988c-11.637-34.541,8.716-49.268,8.145-71.558
				c-0.629-24.409,17.969-62.521,20.851-62.6l26.28-0.725c1.94,18.592,9.775,38.926,16.297,59.047
				c19.214,3.813,61.228-12.458,61.228-12.458s11.29,21.869,10.731,31.329c-24.349,13.584-45.354,19.921-62.774,20.779
				c0.826,10.334-0.173,20.217-4.165,29.331c-2.987,6.816-11.688,9.073-22.373,9.368
				C295.809,340.467,286.761,339.601,278.157,338.723z"/>
		</g>
	</g>
</g>
</svg>
