<svg width="16" height="16" viewBox="0 0 16 16" fill="none" xmlns="http://www.w3.org/2000/svg">
<path d="M15.8574 14.4791C15.9487 14.5705 16 14.6944 16 14.8237C16 14.9529 15.9487 15.0768 15.8574 15.1682L15.1682 15.8574C15.0768 15.9487 14.9529 16 14.8237 16C14.6944 16 14.5705 15.9487 14.4791 15.8574L9.65455 11.0328C9.60458 10.9819 9.56672 10.9203 9.54377 10.8527C8.32263 11.7442 6.8101 12.1421 5.30834 11.967C3.80658 11.7919 2.42619 11.0566 1.44294 9.90806C0.459699 8.75951 -0.0539919 7.28226 0.00449806 5.77146C0.062988 4.26066 0.689352 2.82755 1.75845 1.75845C2.82755 0.689352 4.26066 0.062988 5.77146 0.00449806C7.28226 -0.0539919 8.75951 0.459699 9.90806 1.44294C11.0566 2.42619 11.7919 3.80658 11.967 5.30834C12.1421 6.8101 11.7442 8.32263 10.8527 9.54377C10.9204 9.56653 10.982 9.60442 11.0328 9.65455L15.8574 14.4791ZM6.01919 2.02703C5.22961 2.02703 4.45777 2.26116 3.80126 2.69983C3.14475 3.13849 2.63307 3.76198 2.33091 4.49145C2.02875 5.22093 1.9497 6.02362 2.10373 6.79802C2.25777 7.57242 2.63799 8.28376 3.1963 8.84207C3.75462 9.40039 4.46595 9.7806 5.24036 9.93464C6.01476 10.0887 6.81745 10.0096 7.54692 9.70747C8.27639 9.40531 8.89989 8.89362 9.33855 8.23711C9.77721 7.58061 10.0114 6.80876 10.0114 6.01919C10.0114 4.9604 9.59075 3.94498 8.84207 3.1963C8.0934 2.44763 7.07798 2.02703 6.01919 2.02703Z" fill="#545454"/>
</svg>
