<svg width="14" height="14" viewBox="0 0 14 14" fill="none" xmlns="http://www.w3.org/2000/svg">
<circle cx="7" cy="7" r="7" fill="#209DE2"/>
<path d="M10.8029 4.59849L10.1781 3.97515C10.1507 3.94781 10.1183 3.92612 10.0826 3.91133C10.0469 3.89653 10.0086 3.88892 9.96995 3.88892C9.93129 3.88892 9.89302 3.89653 9.85731 3.91133C9.8216 3.92612 9.78915 3.94781 9.76182 3.97515L6.01767 7.7193L4.2389 5.92386C4.21158 5.89653 4.17913 5.87484 4.14342 5.86004C4.10771 5.84525 4.06944 5.83763 4.03078 5.83763C3.99213 5.83763 3.95385 5.84525 3.91814 5.86004C3.88243 5.87484 3.84999 5.89653 3.82266 5.92386L3.19756 6.54925C3.17022 6.57658 3.14854 6.60903 3.13374 6.64474C3.11894 6.68045 3.11133 6.71872 3.11133 6.75738C3.11133 6.79603 3.11894 6.83431 3.13374 6.87002C3.14854 6.90573 3.17022 6.93817 3.19756 6.9655L5.80882 9.59138C5.83614 9.61872 5.86859 9.6404 5.9043 9.6552C5.94001 9.67 5.97828 9.67761 6.01694 9.67761C6.05559 9.67761 6.09387 9.67 6.12958 9.6552C6.16529 9.6404 6.19773 9.61872 6.22506 9.59138L10.8029 5.01474C10.8302 4.98741 10.8519 4.95496 10.8667 4.91925C10.8815 4.88354 10.8891 4.84527 10.8891 4.80661C10.8891 4.76796 10.8815 4.72968 10.8667 4.69397C10.8519 4.65826 10.8302 4.62582 10.8029 4.59849Z" fill="white"/>
</svg>
