<?xml version="1.0" encoding="utf-8"?>
<!-- Generator: Adobe Illustrator 16.0.0, SVG Export Plug-In . SVG Version: 6.00 Build 0)  -->
<!DOCTYPE svg PUBLIC "-//W3C//DTD SVG 1.1//EN" "http://www.w3.org/Graphics/SVG/1.1/DTD/svg11.dtd">
<svg version="1.1" id="Layer_1" xmlns="http://www.w3.org/2000/svg" xmlns:xlink="http://www.w3.org/1999/xlink" x="0px" y="0px"
	 width="16px" height="16px" viewBox="0 0 16 16" enable-background="new 0 0 16 16" xml:space="preserve">
<path fill="#E0E0E0" d="M15.958,5.837c-0.104-0.326-0.393-0.558-0.731-0.588l-4.619-0.422L8.783,0.521C8.648,0.204,8.341,0,8,0
	S7.352,0.204,7.218,0.521L5.393,4.826L0.773,5.249C0.435,5.28,0.148,5.511,0.042,5.837C-0.063,6.164,0.034,6.521,0.29,6.748
	l3.491,3.084L2.752,14.4c-0.075,0.336,0.054,0.684,0.331,0.885c0.149,0.109,0.323,0.163,0.499,0.163c0.151,0,0.302-0.04,0.436-0.122
	L8,12.928l3.982,2.398c0.291,0.176,0.659,0.16,0.936-0.041s0.406-0.549,0.33-0.885l-1.029-4.568l3.491-3.084
	C15.967,6.521,16.063,6.164,15.958,5.837z"/>
<path fill="#FFD248" d="M7.22,0.519C7.354,0.203,7.66,0,8,0v12.894l-3.973,2.394c-0.134,0.081-0.284,0.121-0.435,0.121
	c-0.174,0-0.349-0.055-0.497-0.163c-0.276-0.2-0.405-0.548-0.331-0.884l1.027-4.557L0.31,6.73C0.054,6.505-0.043,6.147,0.062,5.821
	c0.106-0.325,0.392-0.555,0.73-0.586l4.607-0.421L7.22,0.519z"/>
</svg>
