<svg width="16" height="16" viewBox="0 0 16 16" fill="none" xmlns="http://www.w3.org/2000/svg">
<path d="M15.9581 5.83703C15.8528 5.51061 15.5654 5.27951 15.2268 5.24864L10.6081 4.82616L8.78274 0.520498C8.64797 0.204165 8.34132 0 8.00001 0C7.6587 0 7.35193 0.204165 7.21802 0.520498L5.39267 4.82616L0.773215 5.24864C0.434587 5.28012 0.147839 5.51122 0.0418804 5.83703C-0.0634679 6.16344 0.0338237 6.52147 0.289931 6.74778L3.78132 9.83226L2.75188 14.4004C2.67656 14.7363 2.80596 15.0836 3.08258 15.2851C3.23126 15.3939 3.40595 15.4483 3.58124 15.4483C3.73188 15.4483 3.88264 15.4079 4.01728 15.3268L8.00001 12.9275L11.982 15.3268C12.2741 15.5026 12.6414 15.4865 12.9174 15.2851C13.1941 15.0836 13.3235 14.7363 13.2481 14.4004L12.2187 9.83226L15.7101 6.74778C15.9661 6.52147 16.0635 6.16418 15.9581 5.83703Z" fill="#FFD248"/>
</svg>
