<?xml version="1.0" encoding="utf-8"?>
<!-- Generator: Adobe Illustrator 16.0.0, SVG Export Plug-In . SVG Version: 6.00 Build 0)  -->
<!DOCTYPE svg PUBLIC "-//W3C//DTD SVG 1.1//EN" "http://www.w3.org/Graphics/SVG/1.1/DTD/svg11.dtd">
<svg version="1.1" id="Layer_1" xmlns="http://www.w3.org/2000/svg" xmlns:xlink="http://www.w3.org/1999/xlink" x="0px" y="0px"
	 width="20px" height="20px" viewBox="0 0 20 20" enable-background="new 0 0 20 20" xml:space="preserve">
<path fill="#209DE2" d="M16,2.62h-1.812V1.811c0-0.262-0.284-0.381-0.547-0.381h-1.403c-0.334-0.952-1.166-1.429-2.119-1.429
	C9.178-0.034,8.321,0.543,8,1.43H6.62c-0.262,0-0.524,0.119-0.524,0.381V2.62H4.287c-1.072,0.012-1.95,0.857-2,1.929v13.641
	c0,1.049,0.952,1.811,2,1.811H16c1.047,0,2-0.762,2-1.811V4.549C17.949,3.478,17.072,2.632,16,2.62z M7.047,2.382h1.309
	C8.586,2.354,8.77,2.18,8.81,1.953c0.142-0.614,0.681-1.055,1.31-1.071c0.623,0.019,1.154,0.461,1.285,1.072
	c0.043,0.234,0.238,0.41,0.477,0.428h1.357v1.905H7.047V2.382z M17.047,18.189c0,0.524-0.523,0.857-1.047,0.857H4.287
	c-0.524,0-1.048-0.333-1.048-0.857V4.549c0.049-0.545,0.5-0.966,1.048-0.976h1.809v1.214C6.121,5.054,6.352,5.253,6.62,5.239h7.023
	c0.271,0.015,0.512-0.182,0.547-0.452V3.573H16c0.547,0.01,0.998,0.431,1.047,0.976V18.189L17.047,18.189z"/>
<path fill="#209DE2" d="M8.31,10.645c-0.179-0.188-0.475-0.2-0.667-0.024l-1.524,1.453l-0.643-0.667
	C5.296,11.218,5,11.208,4.809,11.383c-0.184,0.192-0.184,0.497,0,0.69l0.976,1c0.084,0.094,0.207,0.146,0.333,0.143
	c0.125-0.002,0.245-0.053,0.333-0.143l1.857-1.763c0.184-0.17,0.196-0.455,0.027-0.64C8.329,10.662,8.318,10.652,8.31,10.645z"/>
<path fill="#209DE2" d="M15.143,11.668H9.666c-0.262,0-0.476,0.213-0.476,0.477c0,0.263,0.214,0.476,0.476,0.476h5.477
	c0.264,0,0.477-0.213,0.477-0.476C15.619,11.881,15.406,11.668,15.143,11.668z"/>
<path fill="#209DE2" d="M8.31,6.834C8.13,6.646,7.834,6.636,7.643,6.811L6.12,8.263L5.477,7.596C5.297,7.408,5.001,7.397,4.81,7.572
	c-0.184,0.193-0.184,0.498,0,0.69l0.976,1C5.871,9.357,5.993,9.41,6.12,9.406c0.125-0.002,0.245-0.053,0.333-0.143L8.31,7.501
	c0.184-0.169,0.196-0.455,0.027-0.639C8.329,6.853,8.318,6.843,8.31,6.834z"/>
<path fill="#209DE2" d="M15.143,7.858H9.666c-0.262,0-0.476,0.213-0.476,0.476S9.404,8.81,9.666,8.81h5.477
	c0.264,0,0.477-0.213,0.477-0.476S15.406,7.858,15.143,7.858z"/>
<path fill="#209DE2" d="M8.31,14.453c-0.179-0.188-0.475-0.199-0.667-0.023l-1.524,1.451l-0.643-0.666
	C5.296,15.027,5,15.016,4.809,15.191c-0.184,0.192-0.184,0.496,0,0.689l0.976,1c0.084,0.096,0.207,0.146,0.333,0.143
	c0.125-0.002,0.245-0.053,0.333-0.143l1.857-1.762c0.184-0.169,0.196-0.455,0.027-0.639C8.329,14.471,8.318,14.461,8.31,14.453z"/>
<path fill="#209DE2" d="M15.143,15.477H9.666c-0.262,0-0.476,0.213-0.476,0.478c0,0.263,0.214,0.476,0.476,0.476h5.477
	c0.264,0,0.477-0.213,0.477-0.476C15.619,15.689,15.406,15.477,15.143,15.477z"/>
</svg>
