<svg width="24" height="24" viewBox="0 0 24 24" fill="none" xmlns="http://www.w3.org/2000/svg">
<path d="M23.238 20.4092L17.5575 15.5779C17.1001 15.1167 16.4832 14.8485 15.8339 14.8285C17.3416 13.0607 18.1067 10.7781 17.9687 8.45879C17.8307 6.13951 16.8005 3.96363 15.0939 2.3871C13.3872 0.810575 11.1366 -0.0442458 8.81371 0.00176557C6.49079 0.047777 4.27582 0.99105 2.63295 2.63393C0.990073 4.2768 0.0468004 6.49177 0.000789009 8.81469C-0.0452224 11.1376 0.809599 13.3882 2.38613 15.0948C3.96266 16.8015 6.13854 17.8317 8.45781 17.9697C10.7771 18.1076 13.0598 17.3426 14.8275 15.8349C14.8475 16.4842 15.1157 17.101 15.5769 17.5585L20.4083 23.239C20.5849 23.461 20.8065 23.6433 21.0585 23.7737C21.3105 23.9042 21.5872 23.9799 21.8705 23.996C22.1538 24.0121 22.4373 23.9681 22.7025 23.867C22.9676 23.7659 23.2084 23.6099 23.409 23.4093C23.6097 23.2086 23.7657 22.9678 23.8668 22.7027C23.9679 22.4376 24.0119 22.154 23.9958 21.8707C23.9797 21.5874 23.904 21.3107 23.7735 21.0587C23.643 20.8067 23.4608 20.5851 23.2387 20.4085L23.238 20.4092ZM8.99343 14.9903C7.80769 14.9903 6.64858 14.6387 5.66268 13.98C4.67678 13.3212 3.90836 12.3849 3.4546 11.2894C3.00084 10.1939 2.88211 8.9885 3.11344 7.82555C3.34476 6.6626 3.91575 5.59436 4.75419 4.75592C5.59263 3.91748 6.66087 3.34649 7.82383 3.11517C8.98678 2.88384 10.1922 3.00256 11.2877 3.45633C12.3832 3.91009 13.3195 4.6785 13.9782 5.66441C14.637 6.65031 14.9886 7.80942 14.9886 8.99515C14.9886 10.5852 14.357 12.1101 13.2327 13.2344C12.1083 14.3587 10.5835 14.9903 8.99343 14.9903Z" fill="#1DAFEC"/>
</svg>
