<svg width="9" height="5" viewBox="0 0 9 5" fill="none" xmlns="http://www.w3.org/2000/svg">
<path d="M0.223273 3.34227C0.510333 3.05321 3.52557 0.231283 3.52557 0.231283C3.59734 0.158035 3.6834 0.0997675 3.77861 0.0599693C3.87382 0.020171 3.97622 -0.000341112 4.07969 -0.000341117C4.18315 -0.000341121 4.28555 0.020171 4.38076 0.0599692C4.47597 0.0997675 4.56204 0.158035 4.63381 0.231283C4.63381 0.231283 7.65036 3.0545 7.9361 3.34227C8.07934 3.49408 8.15894 3.69348 8.15894 3.90052C8.15894 4.10756 8.07934 4.30696 7.9361 4.45877C7.86605 4.53466 7.78062 4.5953 7.6853 4.63679C7.58999 4.67829 7.48689 4.69973 7.38264 4.69973C7.27839 4.69973 7.1753 4.67829 7.07998 4.63679C6.98466 4.5953 6.89923 4.53466 6.82918 4.45877L4.08035 1.86844L1.33151 4.45877C1.26145 4.53494 1.17591 4.59582 1.08043 4.63749C0.984951 4.67915 0.881642 4.70068 0.777172 4.70068C0.672702 4.70068 0.569393 4.67915 0.473911 4.63749C0.37843 4.59582 0.292897 4.53494 0.222833 4.45877C0.0795927 4.30696 -2.5926e-08 4.10756 -3.49762e-08 3.90052C-4.40264e-08 3.69348 0.0800322 3.49408 0.223273 3.34227Z" fill="#1D1D1D"/>
</svg>
