<svg width="16" height="16" viewBox="0 0 16 16" fill="none" xmlns="http://www.w3.org/2000/svg">
<path d="M14.9371 1.20476e-06H0.672318C0.420725 -0.000474698 0.190072 0.140075 0.0750631 0.363906C-0.0415325 0.590752 -0.0210687 0.863919 0.127888 1.07109L5.35391 8.43295C5.35565 8.43549 5.35756 8.43787 5.3593 8.44041C5.54919 8.69676 5.65182 9.00721 5.65246 9.32638V15.3284C5.65135 15.5063 5.72115 15.6769 5.84647 15.8031C5.97179 15.9292 6.14216 15.9999 6.31983 15.9999C6.41025 15.9999 6.49956 15.9818 6.583 15.9473L9.51962 14.8275C9.7828 14.7472 9.95745 14.4989 9.95745 14.1999V9.32638C9.95793 9.00737 10.0607 8.69676 10.2504 8.44041C10.2522 8.43787 10.2541 8.43549 10.2558 8.43295L15.4817 1.07078C15.6307 0.86376 15.6511 0.590752 15.5345 0.363906C15.4195 0.140075 15.1889 -0.000474698 14.9371 1.20476e-06ZM9.59561 7.95927C9.30372 8.35538 9.14588 8.8343 9.14493 9.32638V14.1012L6.46466 15.1232V9.32638C6.46371 8.8343 6.30587 8.35538 6.01382 7.95927L0.94025 0.812204H14.6693L9.59561 7.95927Z" fill="#209DE2"/>
</svg>
