<svg width="12" height="12" viewBox="0 0 12 12" fill="none" xmlns="http://www.w3.org/2000/svg">
<path d="M6 12C4.81331 12 3.65328 11.6481 2.66658 10.9888C1.67989 10.3295 0.910851 9.39246 0.456725 8.2961C0.00259972 7.19974 -0.11622 5.99335 0.115291 4.82946C0.346802 3.66557 0.918247 2.59648 1.75736 1.75736C2.59648 0.918247 3.66557 0.346802 4.82946 0.115291C5.99335 -0.11622 7.19974 0.00259972 8.2961 0.456725C9.39246 0.910851 10.3295 1.67989 10.9888 2.66658C11.6481 3.65328 12 4.81331 12 6C12 7.5913 11.3679 9.11742 10.2426 10.2426C9.11742 11.3679 7.5913 12 6 12ZM8.75123 4.25031C8.80537 4.19613 8.83579 4.12267 8.83579 4.04608C8.83579 3.96949 8.80537 3.89603 8.75123 3.84185L8.13831 3.23077C8.08413 3.17663 8.01067 3.14622 7.93408 3.14622C7.85748 3.14622 7.78402 3.17663 7.72985 3.23077L5.994 4.96662L4.25816 3.23077C4.20398 3.17663 4.13052 3.14622 4.05393 3.14622C3.97733 3.14622 3.90387 3.17663 3.84969 3.23077L3.23677 3.84323C3.18263 3.89741 3.15222 3.97087 3.15222 4.04746C3.15222 4.12406 3.18263 4.19752 3.23677 4.25169L4.97308 5.988L3.23677 7.72339C3.18263 7.77756 3.15222 7.85102 3.15222 7.92762C3.15222 8.00421 3.18263 8.07767 3.23677 8.13185L3.84969 8.74477C3.90387 8.79891 3.97733 8.82933 4.05393 8.82933C4.13052 8.82933 4.20398 8.79891 4.25816 8.74477L5.994 7.00846L7.72985 8.74477C7.78402 8.79891 7.85748 8.82933 7.93408 8.82933C8.01067 8.82933 8.08413 8.79891 8.13831 8.74477L8.75123 8.13185C8.80537 8.07767 8.83579 8.00421 8.83579 7.92762C8.83579 7.85102 8.80537 7.77756 8.75123 7.72339L7.01539 5.98662L8.75169 4.25031H8.75123Z" fill="#545454"/>
</svg>
