<svg width="8" height="7" viewBox="0 0 8 7" fill="none" xmlns="http://www.w3.org/2000/svg">
<path d="M7.80287 1.59849L7.17807 0.975149C7.15074 0.94781 7.1183 0.926124 7.08259 0.911328C7.04688 0.896532 7.0086 0.888916 6.96995 0.888916C6.93129 0.888916 6.89302 0.896532 6.85731 0.911328C6.8216 0.926124 6.78915 0.94781 6.76182 0.975149L3.01767 4.7193L1.2389 2.92386C1.21158 2.89653 1.17913 2.87484 1.14342 2.86004C1.10771 2.84525 1.06944 2.83763 1.03078 2.83763C0.992127 2.83763 0.953852 2.84525 0.918142 2.86004C0.882431 2.87484 0.849986 2.89653 0.822659 2.92386L0.197561 3.54925C0.170223 3.57658 0.148536 3.60903 0.13374 3.64474C0.118944 3.68045 0.111328 3.71872 0.111328 3.75738C0.111328 3.79603 0.118944 3.83431 0.13374 3.87002C0.148536 3.90573 0.170223 3.93817 0.197561 3.9655L2.80882 6.59138C2.83614 6.61872 2.86859 6.6404 2.9043 6.6552C2.94001 6.67 2.97828 6.67761 3.01694 6.67761C3.05559 6.67761 3.09387 6.67 3.12958 6.6552C3.16529 6.6404 3.19773 6.61872 3.22506 6.59138L7.80287 2.01474C7.83021 1.98741 7.8519 1.95496 7.86669 1.91925C7.88149 1.88354 7.88911 1.84527 7.88911 1.80661C7.88911 1.76796 7.88149 1.72968 7.86669 1.69397C7.8519 1.65826 7.83021 1.62582 7.80287 1.59849Z" fill="white"/>
</svg>
