<svg width="12" height="10" viewBox="0 0 12 10" fill="none" xmlns="http://www.w3.org/2000/svg">
<path d="M11.8893 1.1754L10.8246 0.110739C10.7898 0.0756463 10.7483 0.0477952 10.7026 0.0287898C10.657 0.00978435 10.608 0 10.5585 0C10.5091 0 10.4601 0.00978435 10.4144 0.0287898C10.3688 0.0477952 10.3273 0.0756463 10.2925 0.110739L4.84918 5.85742L1.72908 2.73582C1.65756 2.66433 1.56058 2.62416 1.45945 2.62416C1.35832 2.62416 1.26134 2.66433 1.18982 2.73582L0.111658 3.8151C0.0401631 3.88662 0 3.98361 0 4.08474C0 4.18586 0.0401631 4.28285 0.111658 4.35437L4.5488 8.89501C4.58978 8.93517 4.63954 8.96522 4.69416 8.98279C4.74877 9.00037 4.80673 9.00498 4.86343 8.99627C4.92183 9.00631 4.98178 9.00236 5.03836 8.98476C5.09494 8.96716 5.14654 8.93641 5.18894 8.89501L11.8893 1.70791C11.9244 1.67305 11.9523 1.63157 11.9714 1.58588C11.9904 1.54018 12.0002 1.49116 12.0002 1.44166C12.0002 1.39215 11.9904 1.34313 11.9714 1.29743C11.9523 1.25174 11.9244 1.21026 11.8893 1.1754Z" fill="#209DE2"/>
</svg>
