<svg width="17" height="12" viewBox="0 0 17 12" fill="none" xmlns="http://www.w3.org/2000/svg">
<path d="M15.939 1.47177L14.6442 0.179933C14.5875 0.123276 14.5203 0.0783314 14.4463 0.0476674C14.3723 0.0170034 14.293 0.0012207 14.2129 0.0012207C14.1327 0.0012207 14.0534 0.0170034 13.9794 0.0476674C13.9054 0.0783314 13.8382 0.123276 13.7815 0.179933L6.022 7.93947L2.33561 4.21853C2.27898 4.16187 2.21174 4.11693 2.13773 4.08626C2.06372 4.0556 1.9844 4.03982 1.90429 4.03982C1.82418 4.03982 1.74486 4.0556 1.67085 4.08626C1.59684 4.11693 1.5296 4.16187 1.47297 4.21853L0.177492 5.51461C0.120835 5.57125 0.0758902 5.63849 0.0452261 5.7125C0.0145621 5.7865 -0.0012207 5.86583 -0.0012207 5.94593C-0.0012207 6.02604 0.0145621 6.10537 0.0452261 6.17937C0.0758902 6.25338 0.120835 6.32062 0.177492 6.37726L5.58916 11.8192C5.64579 11.8759 5.71304 11.9208 5.78704 11.9515C5.86105 11.9822 5.94037 11.9979 6.02048 11.9979C6.10059 11.9979 6.17991 11.9822 6.25392 11.9515C6.32793 11.9208 6.39517 11.8759 6.4518 11.8192L15.939 2.33442C15.9957 2.27778 16.0406 2.21054 16.0713 2.13653C16.102 2.06253 16.1178 1.9832 16.1178 1.9031C16.1178 1.82299 16.102 1.74366 16.0713 1.66966C16.0406 1.59565 15.9957 1.52841 15.939 1.47177Z" fill="white"/>
</svg>
