<svg width="5" height="9" viewBox="0 0 5 9" fill="none" xmlns="http://www.w3.org/2000/svg">
<path d="M3.34276 7.93566C3.0537 7.6486 0.231771 4.63337 0.231771 4.63337C0.158523 4.5616 0.100256 4.47553 0.060458 4.38032C0.0206598 4.28511 0.000147685 4.18271 0.000147694 4.07925C0.000147703 3.97578 0.0206598 3.87339 0.0604581 3.77817C0.100256 3.68296 0.158523 3.5969 0.231771 3.52513C0.231771 3.52513 3.05499 0.508574 3.34276 0.222833C3.49457 0.0795916 3.69397 -8.80528e-08 3.90101 -6.99525e-08C4.10805 -5.18521e-08 4.30745 0.0795917 4.45926 0.222833C4.53514 0.292884 4.59578 0.378314 4.63728 0.473631C4.67878 0.568948 4.70022 0.672044 4.70022 0.776293C4.70022 0.880542 4.67878 0.983639 4.63728 1.07896C4.59578 1.17427 4.53514 1.2597 4.45926 1.32975L1.86893 4.07859L4.45926 6.82742C4.53543 6.89749 4.59631 6.98302 4.63798 7.0785C4.67964 7.17398 4.70117 7.27729 4.70117 7.38176C4.70117 7.48623 4.67964 7.58954 4.63798 7.68502C4.59631 7.78051 4.53543 7.86604 4.45926 7.9361C4.30745 8.07934 4.10805 8.15894 3.90101 8.15894C3.69396 8.15894 3.49457 8.0789 3.34276 7.93566Z" fill="#545454"/>
</svg>
