<svg width="5" height="9" viewBox="0 0 5 9" fill="none" xmlns="http://www.w3.org/2000/svg">
<path d="M1.35841 0.223273C1.64748 0.510333 4.4694 3.52557 4.4694 3.52557C4.54265 3.59734 4.60092 3.6834 4.64071 3.77861C4.68051 3.87382 4.70102 3.97623 4.70102 4.07969C4.70102 4.18315 4.68051 4.28555 4.64071 4.38076C4.60092 4.47597 4.54265 4.56204 4.4694 4.63381C4.4694 4.63381 1.64618 7.65036 1.35841 7.9361C1.20661 8.07934 1.00721 8.15894 0.800163 8.15894C0.593119 8.15894 0.39372 8.07934 0.241913 7.9361C0.166028 7.86605 0.105388 7.78062 0.0638899 7.6853C0.0223919 7.58999 0.000954353 7.48689 0.000954353 7.38264C0.000954353 7.27839 0.0223919 7.1753 0.0638899 7.07998C0.105388 6.98466 0.166028 6.89923 0.241913 6.82918L2.83224 4.08035L0.241913 1.33151C0.165746 1.26145 0.104865 1.17591 0.0631968 1.08043C0.0215287 0.984951 1.15123e-09 0.881642 1.01482e-09 0.777172C8.78401e-10 0.672702 0.0215287 0.569393 0.0631968 0.473911C0.104865 0.37843 0.165746 0.292897 0.241913 0.222833C0.39372 0.0795927 0.593119 0 0.800163 0C1.00721 0 1.20661 0.0800323 1.35841 0.223273Z" fill="#545454"/>
</svg>
