<svg width="9" height="5" viewBox="0 0 9 5" fill="none" xmlns="http://www.w3.org/2000/svg">
<path d="M8.61779 1.35841C8.33073 1.64747 5.3155 4.4694 5.3155 4.4694C5.24373 4.54265 5.15766 4.60092 5.06245 4.64071C4.96724 4.68051 4.86484 4.70102 4.76138 4.70102C4.65791 4.70102 4.55551 4.68051 4.4603 4.64071C4.36509 4.60092 4.27903 4.54265 4.20726 4.4694C4.20726 4.4694 1.1907 1.64618 0.904962 1.35841C0.761721 1.2066 0.682129 1.00721 0.682129 0.800162C0.682129 0.593118 0.761721 0.39372 0.904962 0.241912C0.975013 0.166028 1.06044 0.105388 1.15576 0.0638896C1.25108 0.0223916 1.35417 0.000954019 1.45842 0.000954024C1.56267 0.000954028 1.66577 0.0223916 1.76108 0.0638896C1.8564 0.105388 1.94183 0.166028 2.01188 0.241913L4.76072 2.83224L7.50955 0.241913C7.57962 0.165746 7.66515 0.104865 7.76063 0.0631968C7.85611 0.0215287 7.95942 -3.81522e-08 8.06389 -3.36314e-08C8.16836 -2.91105e-08 8.27167 0.0215287 8.36715 0.0631968C8.46263 0.104865 8.54817 0.165746 8.61823 0.241913C8.76147 0.39372 8.84106 0.593119 8.84106 0.800163C8.84106 1.00721 8.76103 1.20661 8.61779 1.35841Z" fill="#545454"/>
</svg>
