<svg width="9" height="5" viewBox="0 0 9 5" fill="none" xmlns="http://www.w3.org/2000/svg">
<path d="M7.93591 1.35841C7.64885 1.64747 4.63361 4.4694 4.63361 4.4694C4.56184 4.54265 4.47578 4.60092 4.38057 4.64071C4.28535 4.68051 4.18295 4.70102 4.07949 4.70102C3.97603 4.70102 3.87363 4.68051 3.77842 4.64071C3.68321 4.60092 3.59714 4.54265 3.52537 4.4694C3.52537 4.4694 0.508819 1.64618 0.223077 1.35841C0.0798358 1.2066 0.000244096 1.00721 0.000244105 0.800162C0.000244114 0.593118 0.0798359 0.39372 0.223077 0.241912C0.293128 0.166028 0.378558 0.105388 0.473875 0.0638896C0.569192 0.0223916 0.672288 0.000954019 0.776537 0.000954024C0.880786 0.000954028 0.983883 0.0223916 1.0792 0.0638896C1.17452 0.105388 1.25995 0.166028 1.33 0.241913L4.07883 2.83224L6.82767 0.241913C6.89773 0.165746 6.98326 0.104865 7.07875 0.0631968C7.17423 0.0215287 7.27754 -3.81522e-08 7.38201 -3.36314e-08C7.48648 -2.91105e-08 7.58979 0.0215287 7.68527 0.0631968C7.78075 0.104865 7.86628 0.165746 7.93635 0.241913C8.07959 0.39372 8.15918 0.593119 8.15918 0.800163C8.15918 1.00721 8.07915 1.20661 7.93591 1.35841Z" fill="#E0E0E0"/>
</svg>
