<svg width="16" height="16" viewBox="0 0 16 16" fill="none" xmlns="http://www.w3.org/2000/svg">
<circle cx="8" cy="8" r="8" fill="#FFDAD6"/>
<path d="M4.62877 6.23624L4.62877 10.9503C4.62879 11.1271 4.69903 11.2966 4.82403 11.4216C4.94903 11.5466 5.11856 11.6168 5.29533 11.6169L10.0094 11.6169C10.0979 11.6184 10.1858 11.6023 10.268 11.5695C10.3503 11.5367 10.4251 11.4878 10.4883 11.4258C10.5514 11.3637 10.6015 11.2897 10.6358 11.2081C10.67 11.1264 10.6876 11.0388 10.6876 10.9503C10.6876 10.8618 10.67 10.7741 10.6358 10.6925C10.6015 10.6109 10.5514 10.5369 10.4883 10.4748C10.4251 10.4128 10.3503 10.3639 10.268 10.3311C10.1858 10.2983 10.0979 10.2822 10.0094 10.2837L6.90471 10.2837L11.4236 5.76484C11.5486 5.63981 11.6189 5.47025 11.6189 5.29343C11.6189 5.11662 11.5486 4.94705 11.4236 4.82203C11.2986 4.69701 11.129 4.62677 10.9522 4.62677C10.7754 4.62677 10.6058 4.69701 10.4808 4.82203L5.9619 9.34091V6.23624C5.95886 6.06147 5.8873 5.89487 5.76262 5.77235C5.63795 5.64982 5.47014 5.58116 5.29533 5.58116C5.12053 5.58116 4.95272 5.64982 4.82804 5.77235C4.70337 5.89487 4.63181 6.06147 4.62877 6.23624Z" fill="#FF5041"/>
</svg>
