<svg width="16" height="16" viewBox="0 0 16 16" fill="none" xmlns="http://www.w3.org/2000/svg">
<circle cx="8" cy="8" r="8" fill="#CBEFE3"/>
<path d="M4.62682 6.23624L4.62681 10.9503C4.62684 11.1271 4.69708 11.2966 4.82208 11.4216C4.94708 11.5466 5.1166 11.6168 5.29338 11.6169L10.0074 11.6169C10.0959 11.6184 10.1839 11.6023 10.2661 11.5695C10.3483 11.5367 10.4232 11.4878 10.4863 11.4258C10.5494 11.3637 10.5996 11.2897 10.6338 11.2081C10.668 11.1264 10.6857 11.0388 10.6857 10.9503C10.6857 10.8618 10.668 10.7741 10.6338 10.6925C10.5996 10.6109 10.5494 10.5369 10.4863 10.4748C10.4232 10.4128 10.3483 10.3639 10.2661 10.3311C10.1839 10.2983 10.0959 10.2822 10.0074 10.2837L6.90276 10.2837L11.4216 5.76484C11.5467 5.63981 11.6169 5.47025 11.6169 5.29343C11.6169 5.11662 11.5467 4.94705 11.4216 4.82203C11.2966 4.69701 11.127 4.62677 10.9502 4.62677C10.7734 4.62677 10.6039 4.69701 10.4788 4.82203L5.95995 9.34091V6.23624C5.95691 6.06147 5.88535 5.89487 5.76067 5.77235C5.636 5.64982 5.46819 5.58116 5.29338 5.58116C5.11858 5.58116 4.95076 5.64982 4.82609 5.77235C4.70142 5.89487 4.62985 6.06147 4.62682 6.23624Z" fill="#40C397"/>
</svg>
