<svg width="12" height="8" viewBox="0 0 12 8" fill="none" xmlns="http://www.w3.org/2000/svg">
<path d="M11.2948 0.981346L10.4316 0.120118C10.3938 0.0823468 10.349 0.0523837 10.2996 0.031941C10.2503 0.0114983 10.1974 0.000976562 10.144 0.000976562C10.0906 0.000976562 10.0377 0.0114983 9.98839 0.031941C9.93905 0.0523837 9.89423 0.0823468 9.85647 0.120118L4.68345 5.29314L2.22586 2.81252C2.1881 2.77474 2.14327 2.74478 2.09394 2.72434C2.0446 2.7039 1.99172 2.69337 1.93831 2.69337C1.8849 2.69337 1.83202 2.7039 1.78268 2.72434C1.73335 2.74478 1.68852 2.77474 1.65076 2.81252L0.78711 3.67657C0.749339 3.71433 0.719376 3.75915 0.698933 3.80849C0.678491 3.85783 0.667969 3.91071 0.667969 3.96412C0.667969 4.01753 0.678491 4.07041 0.698933 4.11975C0.719376 4.16908 0.749339 4.21391 0.78711 4.25167L4.39489 7.87965C4.43265 7.91742 4.47747 7.94739 4.52681 7.96783C4.57615 7.98827 4.62903 7.9988 4.68244 7.9988C4.73584 7.9988 4.78873 7.98827 4.83806 7.96783C4.8874 7.94739 4.93223 7.91742 4.96999 7.87965L11.2948 1.55644C11.3326 1.51869 11.3625 1.47386 11.383 1.42452C11.4034 1.37518 11.414 1.3223 11.414 1.26889C11.414 1.21549 11.4034 1.16261 11.383 1.11327C11.3625 1.06393 11.3326 1.0191 11.2948 0.981346Z" fill="#1D1D1D"/>
</svg>
