<svg width="20" height="19" viewBox="0 0 20 19" fill="none" xmlns="http://www.w3.org/2000/svg">
<path d="M19.6707 15.9257C19.1079 14.6073 18.267 13.4261 17.2055 12.4627C16.144 11.4993 14.8869 10.7765 13.5203 10.3438C14.4479 9.07081 14.956 7.2027 14.9759 4.91836C15.0101 1.06162 11.8299 0.0135623 10.1444 -0.000105256C8.45898 -0.0137728 5.26263 0.977126 5.22784 4.83449C5.20796 7.11821 5.68322 8.99378 6.58777 10.2841C5.21403 10.6929 3.94479 11.3935 2.86687 12.3382C1.78895 13.2828 0.927797 14.4491 0.34231 15.7574L0 16.5345L0.785885 16.8576C3.7274 17.9659 6.83752 18.5604 9.98043 18.6151C13.1248 18.6157 16.2458 18.0758 19.2073 17.0191L19.9981 16.7085L19.6695 15.9239L19.6707 15.9257ZM10.1233 1.65616C10.4538 1.66299 13.3458 1.80339 13.3184 4.90407C13.2967 7.38597 12.622 9.27272 11.4696 10.0822L10.0407 11.083L8.63604 10.0586C7.49728 9.22861 6.85615 7.33006 6.87851 4.84815C6.90585 1.74686 9.7984 1.6574 10.1208 1.65678L10.1233 1.65616ZM9.99907 16.9589C7.36702 16.9038 4.75805 16.455 2.25888 15.6275C2.91194 14.5478 3.79179 13.6229 4.83753 12.9168C5.88328 12.2106 7.06996 11.7401 8.31547 11.5378L10.0457 11.1893L11.7696 11.567C13.0115 11.7915 14.1899 12.2827 15.2235 13.007C16.257 13.7312 17.1211 14.671 17.756 15.7617C15.244 16.5476 12.628 16.9512 9.99596 16.9589H9.99907Z" fill="#209DE2"/>
</svg>
