<svg width="12" height="17" viewBox="0 0 12 17" fill="none" xmlns="http://www.w3.org/2000/svg">
<path d="M7 0.20874C5.67436 0.210196 4.40344 0.737448 3.46607 1.67481C2.52871 2.61218 2.00146 3.8831 2 5.20874V6.20874H0V13.2087C0.00145388 14.0039 0.317991 14.7662 0.880286 15.3285C1.44258 15.8907 2.2048 16.2073 3 16.2087H9C9.79541 16.2079 10.558 15.8916 11.1204 15.3292C11.6829 14.7667 11.9992 14.0041 12 13.2087V5.20874C11.9989 3.88298 11.4718 2.61183 10.5344 1.67438C9.59691 0.736924 8.32576 0.2098 7 0.20874ZM4 5.20874C4 4.81477 4.0776 4.42467 4.22836 4.06069C4.37913 3.69671 4.6001 3.366 4.87868 3.08742C5.15726 2.80884 5.48797 2.58787 5.85195 2.4371C6.21593 2.28634 6.60603 2.20874 7 2.20874C7.39397 2.20874 7.78407 2.28634 8.14805 2.4371C8.51203 2.58787 8.84274 2.80884 9.12132 3.08742C9.3999 3.366 9.62087 3.69671 9.77164 4.06069C9.9224 4.42467 10 4.81477 10 5.20874V6.20874H4.003L4 5.20874ZM9 14.2087H3C2.73478 14.2087 2.48043 14.1034 2.29289 13.9158C2.10536 13.7283 2 13.474 2 13.2087V8.20874H10V13.2087C10 13.474 9.89464 13.7283 9.70711 13.9158C9.51957 14.1034 9.26522 14.2087 9 14.2087ZM7 11.2087C7 11.4065 6.94135 11.5999 6.83147 11.7643C6.72159 11.9288 6.56541 12.0569 6.38268 12.1326C6.19996 12.2083 5.99889 12.2281 5.80491 12.1895C5.61093 12.1509 5.43275 12.0557 5.29289 11.9158C5.15304 11.776 5.0578 11.5978 5.01921 11.4038C4.98063 11.2098 5.00043 11.0088 5.07612 10.8261C5.15181 10.6433 5.27998 10.4872 5.44443 10.3773C5.60888 10.2674 5.80222 10.2087 6 10.2087C6.26522 10.2087 6.51957 10.3141 6.70711 10.5016C6.89464 10.6892 7 10.9435 7 11.2087Z" fill="#B6B6B6"/>
</svg>
