<?xml version="1.0" encoding="utf-8"?>
<!-- Generator: Adobe Illustrator 16.0.0, SVG Export Plug-In . SVG Version: 6.00 Build 0)  -->
<!DOCTYPE svg PUBLIC "-//W3C//DTD SVG 1.1//EN" "http://www.w3.org/Graphics/SVG/1.1/DTD/svg11.dtd">
<svg version="1.1" id="Layer_1" xmlns="http://www.w3.org/2000/svg" xmlns:xlink="http://www.w3.org/1999/xlink" x="0px" y="0px"
	 width="1000px" height="1000px" viewBox="0 0 1000 1000" enable-background="new 0 0 1000 1000" xml:space="preserve">
<g>
	<defs>
		<filter id="Adobe_OpacityMaskFilter" filterUnits="userSpaceOnUse" x="5" y="81" width="583" height="876">
			<feFlood  style="flood-color:white;flood-opacity:1" result="back"/>
			<feBlend  in="SourceGraphic" in2="back" mode="normal"/>
		</filter>
	</defs>
	<mask maskUnits="userSpaceOnUse" x="5" y="81" width="583" height="876" id="SVGID_1_">
		<g filter="url(#Adobe_OpacityMaskFilter)">
		</g>
	</mask>
	<g opacity="0.5" mask="url(#SVGID_1_)">
		<g>
			<image overflow="visible" width="583" height="876" xlink:href="C01F7D8E.png"  transform="matrix(1 0 0 1 5 81)">
			</image>
		</g>
	</g>
	<path fill="#F2F2F2" d="M349.854,99.033l-255.588,59.14c-28.89,6.685-46.888,35.534-40.2,64.438L201.272,858.8
		c6.687,28.901,35.528,46.916,64.417,40.23l255.586-59.138c28.889-6.688,46.889-35.534,40.2-64.439L414.271,139.264
		C407.583,110.36,378.743,92.349,349.854,99.033z"/>
	<path fill="#2F80ED" d="M518.639,823.35l-257.846,59.658c-4.58,1.064-9.325,1.215-13.963,0.442
		c-4.638-0.774-9.079-2.452-13.067-4.942c-3.988-2.492-7.447-5.745-10.178-9.574c-2.731-3.832-4.68-8.16-5.738-12.745
		L70.104,217.675c-1.064-4.583-1.214-9.329-0.443-13.969c0.771-4.64,2.449-9.083,4.938-13.072c2.489-3.99,5.74-7.449,9.568-10.181
		c3.827-2.731,8.156-4.681,12.737-5.737l41.187-9.53l1.346,5.817c0.594,2.599,1.698,5.054,3.246,7.224
		c1.549,2.169,3.512,4.01,5.776,5.417c2.257,1.418,4.772,2.375,7.401,2.813c2.628,0.438,5.317,0.351,7.912-0.256l136.94-31.686
		c2.598-0.593,5.052-1.696,7.22-3.246c2.168-1.548,4.009-3.513,5.413-5.778c1.417-2.258,2.373-4.774,2.811-7.404
		c0.438-2.629,0.35-5.32-0.257-7.915l-1.346-5.817l40.198-9.301c4.58-1.063,9.325-1.214,13.961-0.441
		c4.64,0.772,9.08,2.453,13.068,4.943c3.989,2.492,7.449,5.745,10.179,9.575s4.681,8.16,5.737,12.744l147.744,638.517
		c1.063,4.579,1.215,9.325,0.442,13.968c-0.772,4.64-2.45,9.082-4.938,13.071c-2.489,3.989-5.742,7.45-9.567,10.181
		C527.547,820.341,523.221,822.292,518.639,823.35z"/>
	<path fill="#EACBAF" d="M320.26,368.96l9.137-48.701c-5.979-6.639-10.125-14.857-9.713-24.212
		c1.187-26.953,38.854-22.075,46.506-8.707c7.652,13.368,7.689,47.847-1.678,50.533c-3.735,1.072-11.81-1.076-20.092-5.757
		l6.064,36.005L320.26,368.96z"/>
	<path fill="#191847" d="M353.849,272.877c-4.143-1.031-8.422-1.385-12.677-1.046c1.362-3.504,1.794-7.3,1.25-11.019
		c-0.75-3.455-2.04-6.77-3.826-9.819c-0.666-1.5-1.596-2.868-2.748-4.035c-1.216-1.106-2.714-1.858-4.326-2.173
		c-1.628-0.312-3.305-0.266-4.914,0.135c-0.711,0.17-1.343,0.514-2.039,0.715c-0.696,0.2-1.074-0.233-1.606-0.666
		c-1.385-1.003-3.025-1.591-4.732-1.694c-1.807-0.14-3.622,0.127-5.313,0.782c-1.683,0.599-3.187,1.621-4.363,2.967
		c-0.536,0.616-0.966,1.317-1.275,2.073c-0.121,0.312-0.136,0.497-0.442,0.619c-0.28,0.112-0.618,0.125-0.91,0.233
		c-1.433,0.547-2.742,1.374-3.852,2.435c-1.109,1.06-1.996,2.331-2.608,3.739c-0.824,2.524-1.108,5.193-0.836,7.833
		c0.187,3.256,3.352,11.658,6.19,14.678c2.638,2.648,6.016,4.434,9.688,5.121c-2.179,2.804-3.791,6.008-4.744,9.43
		c-1.141,3.684-1.81,7.498-1.987,11.35c-0.28,3.727,0.01,7.474,0.859,11.112c0.362,1.599,1.045,3.106,2.009,4.431
		c0.962,1.324,2.187,2.438,3.595,3.272c1.345,0.736,2.753,1.35,4.208,1.834c1.401,0.537,2.842,0.958,4.313,1.258
		c2.796,0.497,5.999,0.311,8.085-1.959c0.814-0.861,1.525-1.814,2.117-2.839c0.194-0.355,0.311-0.588,0.057-0.924
		c-0.351-0.383-0.748-0.724-1.179-1.014c-2.208-1.741-3.652-4.276-4.025-7.068c-0.42-2.934,0.272-6.757,3.105-8.121
		c3.494-1.685,7.44,0.03,10.631,1.64c0.489-2.349,1.462-4.571,2.854-6.524c1.394-1.953,3.177-3.595,5.238-4.822
		c4.697-2.522,10.151-2.952,14.989-5.139c1.313-0.499,2.495-1.298,3.446-2.334c0.438-0.482,0.767-1.055,0.965-1.675
		c0.025-0.376-0.029-0.753-0.158-1.107c-0.13-0.354-0.334-0.676-0.597-0.944C366.114,280.407,358.01,274.021,353.849,272.877z"/>
	<path fill="#EACBAF" d="M313.709,467.933l71.927,165.414l52.242,138.874l14.453,1.635l-79.997-299.291L313.709,467.933z"/>
	<path fill="#191847" d="M433.302,763.699c-0.298-0.14-0.621-0.219-0.952-0.229c-0.33-0.011-0.66,0.047-0.966,0.169
		c-0.307,0.122-0.585,0.306-0.819,0.538c-0.236,0.233-0.418,0.514-0.54,0.822l-3.229,7.963c-0.2,3.255-0.202,6.52-0.005,9.776
		l67.931,7.688c0,0,3.654-8.59-1.971-9.945c-5.625-1.353-9.335-2.352-9.335-2.352l-29.957-17.865
		c-0.14-0.082-0.295-0.137-0.456-0.158c-0.161-0.021-0.325-0.009-0.482,0.035s-0.303,0.118-0.43,0.22
		c-0.127,0.103-0.231,0.229-0.308,0.374l-2.596,4.769c0,0-5.564,1.905-8.867,1.53L433.302,763.699z"/>
	<path fill="#A9D6D9" d="M421.621,749.094l28.862-5.596c0,0-11.885-58.906-30.746-130.163
		c-18.861-71.258-42.191-138.18-42.191-138.18l-78.718-8.908c0,0,24.841,84.128,55.419,154.049
		C373.904,664.645,396.408,707.669,421.621,749.094z"/>
	<path fill="#EACBAF" d="M307.827,467.267c-14.621,53.611-38.802,121.486-40.583,123.464c-1.187,1.318-29.681,8.836-105.197,24.833
		l3.229,16.108c88.255-3.176,123.662-9.471,129.145-16.108c8.224-9.963,52.825-90.96,72.286-141.635L307.827,467.267z"/>
	<path fill="#D0EDEF" d="M179.062,608.164l3.088,21.925c64.242,13.254,104.496,13.484,120.765,0.692
		c16.267-12.788,39.057-64.901,68.365-156.335l-75.062-8.495c-20.53,75.265-31.678,114.426-33.443,117.482
		C261.009,586.491,233.105,594.736,179.062,608.164z"/>
	<path fill="#EACBAF" d="M395.579,386.147l38.953-14.017c6.083-5.478,12.885-10.101,20.219-13.735
		c1.883-0.461,5.049-0.423,1.353,4.255c-3.697,4.677-7.378,9.771-6.147,11.58c1.231,1.807,5.248,0.177,6.596,3.08
		c0.899,1.934-5.814,3.718-20.142,5.35l-29.803,19.766L395.579,386.147z"/>
	<path fill="#F2C94C" d="M363.136,377.477c19.899,4.347,40.639,2.927,59.786-4.092l4.095,20.459
		c-17.93,11.206-41.208,18.478-59.071,13.901C353.868,404.138,350.533,385.354,363.136,377.477z"/>
	<path fill="#FFE8A3" d="M442.777,410.489l-31.807-74.58l63.96-22.031l26.177,79.063l-28.928,9.901L442.777,410.489z"/>
	<path fill="#F94D1E" d="M442.955,368.013c0.832,0.089,1.567,0.176,2.305,0.249c3.647,0.36,7.297,0.595,10.962,0.364
		c3.108-0.198,6.128-0.819,9.019-1.982c1.957-0.788,3.807-1.801,5.591-2.93c0.249-0.157,0.342-0.354,0.215-0.645
		c-0.155-0.355-0.316-0.713-0.433-1.083c-0.12-0.374-0.288-0.439-0.658-0.288c-2.756,1.133-5.518,2.247-8.282,3.36
		c-0.176,0.072-0.368,0.138-0.554,0.142c-0.367,0.008-0.649-0.186-0.736-0.538c-0.091-0.363,0.023-0.685,0.388-0.865
		c0.146-0.073,0.301-0.134,0.451-0.195c2.663-1.081,5.327-2.159,7.99-3.24c0.631-0.256,0.628-0.258,0.371-0.901
		c-0.126-0.305-0.224-0.623-0.385-0.908c-0.062-0.107-0.265-0.178-0.404-0.183c-0.139-0.003-0.279,0.094-0.418,0.151
		c-2.915,1.18-5.828,2.361-8.745,3.534c-0.214,0.086-0.458,0.164-0.684,0.149c-0.38-0.025-0.579-0.313-0.623-0.664
		c-0.048-0.388,0.159-0.658,0.514-0.803c1.206-0.494,2.413-0.98,3.62-1.47c1.859-0.753,3.715-1.514,5.579-2.253
		c0.356-0.142,0.482-0.303,0.29-0.661c-0.112-0.211-0.183-0.443-0.274-0.665c-0.316-0.771-0.205-0.766-1.045-0.426
		c-1.652,0.668-3.302,1.338-4.952,2.005c-1.098,0.443-2.192,0.893-3.292,1.325c-0.426,0.166-0.861-0.017-1.021-0.392
		c-0.153-0.365,0.046-0.809,0.451-0.995c0.125-0.057,0.25-0.104,0.375-0.156c2.65-1.074,5.298-2.147,7.946-3.221
		c0.674-0.272,0.674-0.274,0.398-0.96c-0.029-0.068-0.057-0.137-0.086-0.208c-0.474-1.172-0.335-1.106-1.536-0.841
		c-2.697,0.594-5.307,1.447-7.759,2.736c-3.014,1.585-5.677,3.658-8.021,6.108c-2.165,2.264-4.204,4.652-6.297,6.988
		C443.148,367.73,443.093,367.82,442.955,368.013z"/>
	<path fill="none" stroke="#FFE8A3" stroke-width="5" d="M419.885,334.724c1.767-13.459,13.261-46.063,46.362-15.242"/>
	<path fill="#EACBAF" d="M457.175,405.208l15.912-8.83c0,0,3.301-12.775,7.967-12.876c2.385-1.123-1.728,9.646,2.796,8.693
		c4.524-0.954,15.56-9.227,17.476-7.566c2.833,2.46,0.354,10.048-2.594,13.834c-5.501,7.075-10.083,9.507-21.398,12.718
		c-8.878,2.518-19.175,10.016-19.175,10.016L457.175,405.208z"/>
	<path fill="#F2C94C" d="M319.822,520.575c-15.393-1.572-29.717-3.173-37.96-1.311c-15.435-45.813,11.56-65.345,10.802-94.909
		c-0.833-32.375,23.833-82.923,27.655-83.028l34.856-0.962c2.574,24.66,12.965,51.629,21.615,78.316
		c25.484,5.056,81.208-16.525,81.208-16.525s14.973,29.005,14.233,41.552c-32.292,18.017-60.155,26.422-83.259,27.561
		c1.096,13.706-0.229,26.813-5.524,38.902c-3.961,9.041-15.504,12.033-29.674,12.424
		C343.233,522.889,331.233,521.739,319.822,520.575z"/>
	<g>
		<ellipse fill="#E6E6E6" cx="807.149" cy="794.651" rx="135.65" ry="17.777"/>
		<path fill="#B28B67" d="M813.955,337.671l-18.164-52.327c5.524-8.342,8.755-18.131,6.755-28.406
			c-5.768-29.609-46.665-17.915-52.931-1.842c-6.266,16.071-0.605,54.191,10.207,55.597c4.313,0.561,12.898-3.165,21.294-9.727
			l-0.764,40.832L813.955,337.671z"/>
		<path fill="#191847" d="M780.7,299.356c1.424-7.073-0.119-26.743-0.619-32.549c0.329-0.08,0.663-0.142,1-0.183
			c1.102-0.137,2.218-0.056,3.289,0.238c1.068,0.295,2.069,0.797,2.945,1.479c0.874,0.682,1.607,1.529,2.155,2.495
			c0.548,0.964,0.9,2.028,1.037,3.13c0.138,1.118,0.049,2.25-0.258,3.333c-0.31,1.083-0.832,2.093-1.537,2.97
			c2.28,2.491,4.807,5.085,7.666,7.727c8.687-6.76,13.627-24.034,2.527-38.681c-3.483-7.414-9.728-10.834-16.738-11.92
			c-5.313-1.56-10.999-1.283-16.136,0.788c-9.328,1.964-17.393,5.866-19.571,7.86c1.093,8.897,3.147,11.325,17.888,9.279
			c3.862,1.464,7.058,4.413,10.492,8.37c0.014,0.291,1.316,27.034-6.917,28.046c-8.275,1.016-15.942-3.364-19.573-2.918
			c-2.647,0.325-1.651,3.557,0.403,5.79c1.696,1.842,8.985,2.923,9.369,6.055c0.218,1.768-1.559,1.984-3.106,2.17
			c-1.19,0.146-2.246,0.276-2.146,1.082c0.376,3.073,0.104,8.967,5.452,8.311C763.738,311.564,779.021,307.691,780.7,299.356z"/>
		<path fill="#997659" d="M837.64,456.05l-51.663,177.503l-24.299,133.264h-24.39l24.347-310.767H837.64z"/>
		<path fill="#B28B67" d="M860.855,456.05c-3.606,92.21-2.186,142.508-1.379,150.885c0.809,8.373,5.393,64.485,36.6,162.7h-25.367
			c-41.333-94.22-55.763-150.329-60.509-162.7c-4.744-12.374-18.736-62.668-39.178-150.885H860.855z"/>
		<path fill="#69A1AC" d="M838.748,456.05c-13.439,61.079-36.68,158.575-69.726,292.491h-35.669
			c-2.64-137.451,8.569-227.918,27.979-292.491H838.748z"/>
		<path fill="#89C5CC" d="M861.035,456.05c-3.531,92.21,5.617,183.058,33.96,293.929h-38.059
			c-41.412-92.816-71.092-183.213-91.375-293.929H861.035z"/>
		<path fill="#191847" d="M899.691,787.914l-1.318-21.297c-0.023-0.335-0.163-0.651-0.399-0.894
			c-0.236-0.241-0.549-0.388-0.886-0.417l-29.587-2.703l-50.744,18.782c-0.666,0.245-1.212,0.732-1.532,1.361
			c-0.32,0.633-0.392,1.361-0.197,2.041l2.089,7.346h79.777L899.691,787.914z"/>
		<path fill="#191847" d="M767.123,787.914l-1.322-21.297c-0.021-0.335-0.162-0.651-0.398-0.894
			c-0.235-0.241-0.549-0.388-0.886-0.417l-29.586-2.703l-50.743,18.782c-0.665,0.245-1.212,0.732-1.533,1.361
			c-0.321,0.633-0.392,1.361-0.199,2.041l2.091,7.346h79.777L767.123,787.914z"/>
		<path fill="#B28B67" d="M950.448,539.644c1.446-1.132,2.724-4.894-1.752-7.161c-11.147-5.645-27.476-15.913-29.971-19.652
			c-5.101-7.64-28.81-85.301-28.81-85.301l-29.239,3.703c0,0,37.595,82.267,40.398,87.239c4.203,7.459-1.183,20.266-3.325,27.056
			c4.869,1.455,6.703-1.393,8.731-4.263c2.168-3.062,4.567-6.149,11.128-4.085c8.396,2.646,15.672,7.585,23.512,6.62
			C944.557,543.313,947.786,541.873,950.448,539.644z M689.122,493.524l42.014-23.375l-12.8-22.667l-40.715,37.575
			c-11.717,4.685-21.347,9.908-28.891,15.666c-1.709,1.946-3.603,5.697,4.283,4.123c7.885-1.577,16.254-2.884,17.677-0.366
			c1.423,2.517-3.003,6.29-0.341,9.602c0.119,0.152,0.277,0.271,0.461,0.34c0.181,0.069,0.379,0.087,0.569,0.054
			C673.997,514.151,679.912,507.168,689.122,493.524z"/>
		<path fill="#E87613" d="M792.036,317.605l-12.35-0.548c-40.248,43.471-49.756,118.661-100.058,164.05l15.217,14.447
			C788.912,472.268,801.676,380.408,792.036,317.605z"/>
		<path fill="#DDE3E9" d="M863.074,459.996l-107.105,13.157c-4.895,0.602-4.821-6.427-4.542-10.005
			c3.217-41.28,29.769-88.613,22.731-145.947l30.313-8.537C834.96,345.746,849.874,394.178,863.074,459.996z"/>
		<path fill="#FF9B21" d="M919.131,511.518c-7.125-78.5-44.766-134.958-74.534-168.131c5.573-1.083,10.364-4.008,12.878-10.066
			c8.844-21.326,3.418-31.804-9.093-33.93c-12.512-2.126-22.361,6.626-41.588,8.988c-0.767,0.09-1.528,0.239-2.272,0.443
			l-10.182,1.832c0,0-24.679,143.166-0.355,187.035l84.659-10.4c5.277,9.368,11.124,18.403,17.51,27.055L919.131,511.518z"/>
		<path fill-opacity="0.1" d="M847.008,491.175l31.642-3.886c-7.479-12.927-15.945-28.984-25.169-47.731
			C853.604,464.047,851.426,481.408,847.008,491.175L847.008,491.175z"/>
	</g>
</g>
</svg>
