<?xml version="1.0" encoding="utf-8"?>
<!-- Generator: Adobe Illustrator 16.0.0, SVG Export Plug-In . SVG Version: 6.00 Build 0)  -->
<!DOCTYPE svg PUBLIC "-//W3C//DTD SVG 1.1//EN" "http://www.w3.org/Graphics/SVG/1.1/DTD/svg11.dtd">
<svg version="1.1" id="Capa_1" xmlns="http://www.w3.org/2000/svg" xmlns:xlink="http://www.w3.org/1999/xlink" x="0px" y="0px"
	 width="22.418px" height="23.043px" viewBox="0 0 22.418 23.043" enable-background="new 0 0 22.418 23.043" xml:space="preserve">
<g>
	<g>
		<path fill="#209DE2" d="M11.396,20.06H3.599c-0.479,0-0.866-0.388-0.866-0.867V3.599c0-0.479,0.388-0.866,0.866-0.866h7.797
			c0.479,0,0.866-0.387,0.866-0.867C12.262,1.387,11.875,1,11.396,1H3.599C2.166,1,1,2.166,1,3.599v15.594
			c0,1.433,1.166,2.599,2.599,2.599h7.797c0.479,0,0.866-0.387,0.866-0.865S11.875,20.06,11.396,20.06z"/>
	</g>
</g>
<g>
	<g>
		<path fill="#209DE2" d="M21.604,10.779l-5.268-5.198c-0.34-0.336-0.889-0.332-1.225,0.009c-0.336,0.341-0.334,0.889,0.009,1.225
			l3.764,3.715H8.797c-0.479,0-0.866,0.387-0.866,0.866s0.387,0.866,0.866,0.866h10.087l-3.764,3.715
			c-0.341,0.336-0.345,0.885-0.009,1.225c0.17,0.172,0.393,0.258,0.617,0.258c0.22,0,0.439-0.082,0.607-0.25l5.268-5.197
			c0.164-0.163,0.258-0.385,0.258-0.617S21.77,10.943,21.604,10.779z"/>
	</g>
</g>
</svg>
