<?xml version="1.0" encoding="utf-8"?>
<!-- Generator: Adobe Illustrator 16.0.0, SVG Export Plug-In . SVG Version: 6.00 Build 0)  -->
<!DOCTYPE svg PUBLIC "-//W3C//DTD SVG 1.1//EN" "http://www.w3.org/Graphics/SVG/1.1/DTD/svg11.dtd">
<svg version="1.1" id="Capa_1" xmlns="http://www.w3.org/2000/svg" xmlns:xlink="http://www.w3.org/1999/xlink" x="0px" y="0px"
	 width="22.418px" height="23.044px" viewBox="0 0 22.418 23.044" enable-background="new 0 0 22.418 23.044" xml:space="preserve">
<g>
	<g>
		<path fill="#B6B6B6" d="M11.396,20.06H3.599c-0.479,0-0.866-0.388-0.866-0.867V3.599c0-0.479,0.388-0.866,0.866-0.866h7.797
			c0.479,0,0.866-0.387,0.866-0.867C12.262,1.387,11.875,1,11.396,1H3.599C2.166,1,1,2.166,1,3.599v15.594
			c0,1.433,1.166,2.599,2.599,2.599h7.797c0.479,0,0.866-0.387,0.866-0.866S11.875,20.06,11.396,20.06z"/>
	</g>
</g>
<g>
	<g>
		<path fill="#B6B6B6" d="M21.603,10.779l-5.267-5.198c-0.34-0.336-0.889-0.332-1.225,0.009s-0.333,0.889,0.009,1.225l3.764,3.715
			H8.797c-0.479,0-0.866,0.387-0.866,0.866s0.387,0.866,0.866,0.866h10.087l-3.764,3.715c-0.341,0.336-0.344,0.885-0.009,1.225
			c0.17,0.171,0.393,0.258,0.617,0.258c0.22,0,0.44-0.083,0.608-0.25l5.267-5.198c0.165-0.163,0.258-0.385,0.258-0.617
			S21.769,10.943,21.603,10.779z"/>
	</g>
</g>
</svg>
