<svg width="17" height="17" viewBox="0 0 17 17" fill="none" xmlns="http://www.w3.org/2000/svg">
<path d="M15.888 14.507C15.9795 14.5986 16.0309 14.7228 16.0309 14.8523C16.0309 14.9818 15.9795 15.1059 15.888 15.1975L15.1975 15.888C15.1059 15.9795 14.9818 16.0309 14.8523 16.0309C14.7228 16.0309 14.5986 15.9795 14.507 15.888L9.6732 11.0542C9.62314 11.0031 9.5852 10.9414 9.5622 10.8737C8.33871 11.7669 6.82325 12.1656 5.31859 11.9901C3.81393 11.8147 2.43087 11.078 1.44573 9.9272C0.460587 8.77643 -0.0540962 7.29633 0.00450674 5.78261C0.0631097 4.26889 0.690684 2.83301 1.76185 1.76185C2.83301 0.690684 4.26889 0.0631097 5.78261 0.00450674C7.29633 -0.0540962 8.77643 0.460587 9.9272 1.44573C11.078 2.43087 11.8147 3.81393 11.9901 5.31859C12.1656 6.82325 11.7669 8.33871 10.8737 9.5622C10.9415 9.58501 11.0032 9.62297 11.0542 9.6732L15.888 14.507ZM6.03082 2.03094C5.23972 2.03094 4.46638 2.26553 3.8086 2.70504C3.15083 3.14455 2.63815 3.76925 2.33541 4.50013C2.03267 5.23101 1.95346 6.03525 2.1078 6.81115C2.26213 7.58705 2.64308 8.29976 3.20248 8.85915C3.76187 9.41855 4.47458 9.7995 5.25048 9.95383C6.02638 10.1082 6.83062 10.029 7.5615 9.72622C8.29238 9.42348 8.91708 8.9108 9.35659 8.25303C9.7961 7.59525 10.0307 6.82192 10.0307 6.03082C10.0307 4.96998 9.60928 3.9526 8.85915 3.20248C8.10903 2.45236 7.09165 2.03094 6.03082 2.03094Z" fill="#B6B6B6"/>
</svg>
