<?xml version="1.0" encoding="utf-8"?>
<!-- Generator: Adobe Illustrator 16.0.0, SVG Export Plug-In . SVG Version: 6.00 Build 0)  -->
<!DOCTYPE svg PUBLIC "-//W3C//DTD SVG 1.1//EN" "http://www.w3.org/Graphics/SVG/1.1/DTD/svg11.dtd">
<svg version="1.1" id="Layer_1" xmlns="http://www.w3.org/2000/svg" xmlns:xlink="http://www.w3.org/1999/xlink" x="0px" y="0px"
	 width="20px" height="20px" viewBox="0 0 20 20" enable-background="new 0 0 20 20" xml:space="preserve">
<g>
	<defs>
		<rect id="SVGID_1_" width="20" height="20"/>
	</defs>
	<clipPath id="SVGID_2_">
		<use xlink:href="#SVGID_1_"  overflow="visible"/>
	</clipPath>
	<g clip-path="url(#SVGID_2_)">
		<path fill="#209DE2" d="M10.627,20H9.373c-1.015,0-1.841-0.826-1.841-1.842v-0.424C7.1,17.596,6.68,17.422,6.277,17.214
			l-0.301,0.301c-0.729,0.729-1.896,0.708-2.604,0l-0.887-0.888c-0.709-0.708-0.729-1.875,0-2.604l0.301-0.301
			C2.578,13.32,2.404,12.9,2.266,12.469H1.841C0.826,12.469,0,11.643,0,10.627V9.373c0-1.015,0.826-1.841,1.841-1.841h0.424
			C2.404,7.1,2.578,6.68,2.786,6.277L2.485,5.977c-0.729-0.729-0.709-1.896,0-2.604l0.887-0.887c0.709-0.71,1.877-0.728,2.604,0
			l0.301,0.301C6.68,2.578,7.1,2.404,7.531,2.266V1.841C7.531,0.826,8.357,0,9.373,0h1.254c1.016,0,1.842,0.826,1.842,1.841v0.424
			c0.432,0.138,0.852,0.312,1.254,0.521l0.301-0.301c0.729-0.73,1.896-0.708,2.604,0l0.888,0.887c0.709,0.708,0.729,1.875,0,2.604
			l-0.301,0.301c0.208,0.403,0.382,0.822,0.521,1.254h0.424C19.174,7.531,20,8.357,20,9.373v1.254c0,1.016-0.826,1.842-1.842,1.842
			h-0.424c-0.139,0.432-0.313,0.852-0.521,1.254l0.301,0.301c0.729,0.729,0.709,1.896,0,2.604l-0.888,0.888
			c-0.709,0.71-1.877,0.728-2.604,0l-0.301-0.301c-0.402,0.208-0.822,0.382-1.254,0.521v0.424C12.469,19.174,11.643,20,10.627,20z
			 M6.473,15.983c0.56,0.331,1.162,0.581,1.791,0.743c0.259,0.066,0.439,0.3,0.439,0.567v0.864c0,0.369,0.3,0.67,0.669,0.67h1.254
			c0.369,0,0.67-0.301,0.67-0.67v-0.864c0-0.268,0.181-0.501,0.439-0.567c0.629-0.162,1.23-0.412,1.791-0.743
			c0.229-0.136,0.523-0.099,0.712,0.09l0.612,0.612c0.265,0.266,0.689,0.259,0.947,0.001l0.887-0.888
			c0.258-0.257,0.266-0.682,0.001-0.946l-0.613-0.613c-0.188-0.188-0.226-0.482-0.09-0.712c0.331-0.561,0.581-1.162,0.743-1.791
			c0.066-0.259,0.3-0.439,0.567-0.439h0.864c0.369,0,0.67-0.301,0.67-0.669V9.373c0-0.369-0.301-0.669-0.67-0.669h-0.864
			c-0.268,0-0.501-0.181-0.567-0.439c-0.162-0.628-0.412-1.23-0.743-1.79c-0.136-0.23-0.099-0.523,0.09-0.713l0.612-0.613
			c0.266-0.265,0.259-0.689,0.001-0.946l-0.888-0.888c-0.258-0.258-0.682-0.265-0.946,0l-0.613,0.613
			c-0.188,0.189-0.482,0.227-0.712,0.09c-0.561-0.331-1.162-0.581-1.791-0.744c-0.259-0.066-0.439-0.3-0.439-0.567V1.841
			c0-0.369-0.301-0.669-0.669-0.669H9.373c-0.369,0-0.669,0.3-0.669,0.669v0.865c0,0.268-0.181,0.501-0.439,0.567
			c-0.628,0.162-1.23,0.412-1.791,0.743c-0.23,0.136-0.523,0.099-0.712-0.09L5.148,3.314c-0.264-0.265-0.688-0.258-0.946,0
			L3.314,4.201c-0.257,0.257-0.266,0.681,0,0.946l0.613,0.613c0.189,0.189,0.226,0.482,0.09,0.712
			c-0.331,0.56-0.581,1.162-0.743,1.791c-0.066,0.259-0.3,0.439-0.567,0.439H1.841c-0.369,0-0.669,0.3-0.669,0.669v1.254
			c0,0.369,0.3,0.67,0.669,0.67h0.865c0.268,0,0.501,0.181,0.567,0.439c0.162,0.629,0.413,1.23,0.743,1.79
			c0.136,0.23,0.099,0.524-0.09,0.713l-0.613,0.612c-0.265,0.266-0.258,0.689,0,0.947l0.888,0.887
			c0.257,0.258,0.682,0.266,0.946,0.001l0.613-0.613C5.9,15.934,6.19,15.815,6.473,15.983z"/>
		<path fill="#209DE2" d="M10,14.352c-2.399,0-4.352-1.952-4.352-4.352S7.601,5.648,10,5.648S14.352,7.601,14.352,10
			S12.399,14.352,10,14.352z M10,6.82c-1.753,0-3.18,1.426-3.18,3.18c0,1.754,1.426,3.18,3.18,3.18c1.754,0,3.18-1.426,3.18-3.18
			C13.18,8.247,11.754,6.82,10,6.82z"/>
	</g>
</g>
</svg>
