<?xml version="1.0" encoding="utf-8"?>
<!-- Generator: Adobe Illustrator 16.0.0, SVG Export Plug-In . SVG Version: 6.00 Build 0)  -->
<!DOCTYPE svg PUBLIC "-//W3C//DTD SVG 1.1//EN" "http://www.w3.org/Graphics/SVG/1.1/DTD/svg11.dtd">
<svg version="1.1" id="Layer_1" xmlns="http://www.w3.org/2000/svg" xmlns:xlink="http://www.w3.org/1999/xlink" x="0px" y="0px"
	 width="29px" height="28px" viewBox="0 0 29 28" enable-background="new 0 0 29 28" xml:space="preserve">
<path fill="#E0E0E0" d="M28.924,10.58c-0.19-0.592-0.711-1.01-1.325-1.066l-8.372-0.766l-3.309-7.804C15.674,0.37,15.119,0,14.5,0
	c-0.619,0-1.175,0.37-1.417,0.943L9.774,8.748L1.401,9.513C0.788,9.57,0.268,9.989,0.076,10.58c-0.191,0.592-0.014,1.241,0.45,1.651
	l6.328,5.59l-1.866,8.28c-0.137,0.608,0.098,1.238,0.6,1.604C5.856,27.901,6.173,28,6.491,28c0.273,0,0.546-0.073,0.79-0.221
	l7.219-4.348l7.217,4.348c0.529,0.319,1.195,0.29,1.696-0.075s0.735-0.995,0.599-1.604l-1.865-8.28l6.328-5.59
	C28.938,11.82,29.115,11.173,28.924,10.58z"/>
<path fill="#FFD248" d="M13.082,0.943C13.325,0.37,13.881,0,14.5,0v23.432l-7.219,4.348C7.037,27.927,6.764,28,6.491,28
	c-0.318,0-0.635-0.099-0.904-0.296c-0.501-0.365-0.736-0.995-0.6-1.604l1.866-8.28l-6.328-5.59c-0.464-0.41-0.641-1.059-0.45-1.651
	c0.192-0.59,0.712-1.009,1.326-1.066l8.373-0.766L13.082,0.943z"/>
</svg>
