<svg width="29" height="28" viewBox="0 0 29 28" fill="none" xmlns="http://www.w3.org/2000/svg">
<path d="M28.9241 10.5796C28.7332 9.98798 28.2123 9.56911 27.5986 9.51316L19.2271 8.74742L15.9187 0.943402C15.6744 0.370049 15.1186 0 14.5 0C13.8814 0 13.3254 0.370049 13.0827 0.943402L9.77421 8.74742L1.40145 9.51316C0.787688 9.57022 0.267958 9.98909 0.0759083 10.5796C-0.115035 11.1712 0.0613054 11.8202 0.5255 12.2303L6.85364 17.821L4.98779 26.1007C4.85127 26.7095 5.0858 27.339 5.58717 27.7042C5.85666 27.9015 6.17328 28 6.491 28C6.76403 28 7.03728 27.9269 7.28132 27.7798L14.5 23.431L21.7174 27.7798C22.2468 28.0985 22.9126 28.0693 23.4129 27.7042C23.9142 27.339 24.1488 26.7095 24.0122 26.1007L22.1464 17.821L28.4745 12.2303C28.9385 11.8202 29.1151 11.1726 28.9241 10.5796Z" fill="#FFD248"/>
</svg>
