<svg width="20" height="20" viewBox="0 0 20 20" fill="none" xmlns="http://www.w3.org/2000/svg">
<path d="M19.078 19.2186H18.2213V6.77859C18.2213 6.19957 17.7502 5.72852 17.1712 5.72852H15.2562C14.6772 5.72852 14.2061 6.19961 14.2061 6.77859V19.2186H12.0307V12.4149C12.0307 11.8359 11.5596 11.3648 10.9806 11.3648H9.06559C8.48656 11.3648 8.01551 11.8359 8.01551 12.4149V19.2186H5.84004V15.695C5.84004 15.116 5.36895 14.6449 4.78996 14.6449H2.87492C2.2959 14.6449 1.82484 15.116 1.82484 15.695V19.2186H0.921875C0.706133 19.2186 0.53125 19.3935 0.53125 19.6092C0.53125 19.825 0.706133 19.9998 0.921875 19.9998H19.078C19.2938 19.9998 19.4687 19.825 19.4687 19.6092C19.4687 19.3935 19.2938 19.2186 19.078 19.2186ZM5.05871 19.2186H2.60605V15.695C2.60605 15.5468 2.72664 15.4262 2.87488 15.4262H4.78988C4.93812 15.4262 5.05871 15.5468 5.05871 15.695V19.2186ZM11.2494 19.2186H8.79672V12.4149C8.79672 12.2666 8.9173 12.1461 9.06555 12.1461H10.9805C11.1287 12.1461 11.2494 12.2666 11.2494 12.4149V19.2186ZM17.44 19.2186H14.9874V6.77859C14.9874 6.63035 15.108 6.50977 15.2562 6.50977H17.1712C17.3195 6.50977 17.44 6.63035 17.44 6.77859V19.2186Z" fill="#209DE2"/>
<path d="M18.2205 0.410781C18.226 0.30418 18.1885 0.195781 18.1071 0.114375C18.0257 0.0329687 17.9173 -0.00457031 17.8107 0.0009375C17.8044 0.000664063 17.7982 0 17.7918 0H15.4285C15.2128 0 15.0379 0.174883 15.0379 0.390625C15.0379 0.606367 15.2128 0.78125 15.4285 0.78125H16.8878L13.0262 4.64289L11.5699 3.18664C11.4967 3.1134 11.3973 3.07223 11.2937 3.07223C11.1901 3.07223 11.0907 3.1134 11.0175 3.18664L3.99526 10.2089C3.84272 10.3614 3.84272 10.6088 3.99526 10.7614C4.07155 10.8376 4.17151 10.8757 4.27147 10.8757C4.37144 10.8757 4.47144 10.8376 4.54769 10.7613L11.2937 4.01523L12.7499 5.47148C12.9025 5.62402 13.1498 5.62402 13.3024 5.47148L17.4402 1.33371V2.65441C17.4402 2.87016 17.6151 3.04504 17.8308 3.04504C18.0466 3.04504 18.2215 2.87016 18.2215 2.65441V0.429688C18.2215 0.42332 18.2208 0.417109 18.2205 0.410781Z" fill="#209DE2"/>
<path d="M2.95508 12.2388C3.17081 12.2388 3.3457 12.0639 3.3457 11.8481C3.3457 11.6324 3.17081 11.4575 2.95508 11.4575C2.73934 11.4575 2.56445 11.6324 2.56445 11.8481C2.56445 12.0639 2.73934 12.2388 2.95508 12.2388Z" fill="#209DE2"/>
</svg>
