<svg width="20" height="20" viewBox="0 0 20 20" fill="none" xmlns="http://www.w3.org/2000/svg">
<path d="M19.625 7L17.75 4.5C17.6755 4.40389 17.5918 4.31534 17.5 4.23562V1.25C17.5 0.918479 17.3683 0.600537 17.1339 0.366117C16.8995 0.131696 16.5815 0 16.25 0L3.75 0C3.41848 0 3.10054 0.131696 2.86612 0.366117C2.6317 0.600537 2.5 0.918479 2.5 1.25V4.2375C2.40823 4.31656 2.32449 4.40449 2.25 4.5L0.375 7C0.132107 7.32483 0.000583199 7.7194 0 8.125L0 8.75C0 9.24728 0.197544 9.72419 0.549175 10.0758C0.900805 10.4275 1.37772 10.625 1.875 10.625V18.75C1.875 19.0815 2.0067 19.3995 2.24112 19.6339C2.47554 19.8683 2.79348 20 3.125 20H16.875C17.2065 20 17.5245 19.8683 17.7589 19.6339C17.9933 19.3995 18.125 19.0815 18.125 18.75V10.625C18.6223 10.625 19.0992 10.4275 19.4508 10.0758C19.8025 9.72419 20 9.24728 20 8.75V8.125C19.9994 7.71941 19.8679 7.32485 19.625 7ZM16.25 1.25V3.75H3.75V1.25H16.25ZM6.37063 9.375H3.75L6.25 5H7.61812L6.37063 9.375ZM8.27125 5H9.6875V9.375H7.02125L8.27125 5ZM10.3125 5H11.7288L12.9788 9.375H10.3125V5ZM12.3781 5H13.7463L16.2463 9.375H13.6281L12.3781 5ZM1.25 8.75V8.125C1.25 7.98977 1.29386 7.85818 1.375 7.75L3.25 5.25C3.30822 5.17238 3.38371 5.10938 3.47049 5.06598C3.55728 5.02259 3.65297 5 3.75 5H5.5325L3.0325 9.375H1.875C1.70924 9.375 1.55027 9.30915 1.43306 9.19194C1.31585 9.07473 1.25 8.91576 1.25 8.75ZM12.5 18.75H7.8125V12.5H12.5V18.75ZM16.875 18.75H13.125V12.5C13.125 12.3342 13.0592 12.1753 12.9419 12.0581C12.8247 11.9408 12.6658 11.875 12.5 11.875H7.8125C7.64674 11.875 7.48777 11.9408 7.37056 12.0581C7.25335 12.1753 7.1875 12.3342 7.1875 12.5V18.75H3.125V10.625H16.875V18.75ZM18.75 8.75C18.75 8.91576 18.6842 9.07473 18.5669 9.19194C18.4497 9.30915 18.2908 9.375 18.125 9.375H16.9662L14.4662 5H16.25C16.347 5 16.4427 5.02259 16.5295 5.06598C16.6163 5.10938 16.6918 5.17238 16.75 5.25L18.625 7.75C18.7065 7.85801 18.7504 7.98971 18.75 8.125V8.75Z" fill="#209DE2"/>
</svg>
