<svg width="24" height="24" viewBox="0 0 24 24" fill="none" xmlns="http://www.w3.org/2000/svg">
<path d="M12 9C12.5933 9 13.1734 9.17595 13.6667 9.50559C14.1601 9.83524 14.5446 10.3038 14.7716 10.8519C14.9987 11.4001 15.0581 12.0033 14.9424 12.5853C14.8266 13.1672 14.5409 13.7018 14.1213 14.1213C13.7018 14.5409 13.1672 14.8266 12.5853 14.9424C12.0033 15.0581 11.4001 14.9987 10.8519 14.7716C10.3038 14.5446 9.83524 14.1601 9.50559 13.6667C9.17595 13.1734 9 12.5933 9 12C9.00139 11.2048 9.3179 10.4425 9.88021 9.88021C10.4425 9.31791 11.2048 9.00139 12 9ZM12 6C10.8133 6 9.65327 6.35189 8.66658 7.01118C7.67988 7.67047 6.91085 8.60754 6.45672 9.7039C6.0026 10.8003 5.88378 12.0067 6.11529 13.1705C6.3468 14.3344 6.91824 15.4035 7.75736 16.2426C8.59647 17.0818 9.66557 17.6532 10.8295 17.8847C11.9933 18.1162 13.1997 17.9974 14.2961 17.5433C15.3925 17.0892 16.3295 16.3201 16.9888 15.3334C17.6481 14.3467 18 13.1867 18 12C18 10.4087 17.3679 8.88258 16.2426 7.75736C15.1174 6.63214 13.5913 6 12 6ZM10.5 1.5C10.5 1.20333 10.588 0.913319 10.7528 0.666645C10.9176 0.419972 11.1519 0.227713 11.426 0.114181C11.7001 0.000649922 12.0017 -0.0290551 12.2926 0.0288228C12.5836 0.0867006 12.8509 0.229562 13.0607 0.439341C13.2704 0.649119 13.4133 0.916394 13.4712 1.20737C13.5291 1.49834 13.4994 1.79994 13.3858 2.07403C13.2723 2.34811 13.08 2.58238 12.8334 2.74721C12.5867 2.91203 12.2967 3 12 3C11.6022 3 11.2206 2.84197 10.9393 2.56066C10.658 2.27936 10.5 1.89783 10.5 1.5ZM3 4.5C3 4.20333 3.08797 3.91332 3.2528 3.66665C3.41762 3.41997 3.65189 3.22771 3.92597 3.11418C4.20006 3.00065 4.50166 2.97094 4.79264 3.02882C5.08361 3.0867 5.35088 3.22956 5.56066 3.43934C5.77044 3.64912 5.9133 3.91639 5.97118 4.20737C6.02906 4.49834 5.99935 4.79994 5.88582 5.07403C5.77229 5.34811 5.58003 5.58238 5.33335 5.7472C5.08668 5.91203 4.79667 6 4.5 6C4.10218 6 3.72064 5.84197 3.43934 5.56066C3.15804 5.27936 3 4.89783 3 4.5ZM1.5 10.5C1.79667 10.5 2.08668 10.588 2.33336 10.7528C2.58003 10.9176 2.77229 11.1519 2.88582 11.426C2.99935 11.7001 3.02906 12.0017 2.97118 12.2926C2.9133 12.5836 2.77044 12.8509 2.56066 13.0607C2.35088 13.2704 2.08361 13.4133 1.79264 13.4712C1.50166 13.5291 1.20006 13.4994 0.925975 13.3858C0.651886 13.2723 0.417618 13.08 0.252796 12.8334C0.0879735 12.5867 0 12.2967 0 12C0 11.6022 0.158035 11.2206 0.43934 10.9393C0.720644 10.658 1.10218 10.5 1.5 10.5ZM3 19.5C3 19.2033 3.08797 18.9133 3.2528 18.6666C3.41762 18.42 3.65189 18.2277 3.92597 18.1142C4.20006 18.0006 4.50166 17.9709 4.79264 18.0288C5.08361 18.0867 5.35088 18.2296 5.56066 18.4393C5.77044 18.6491 5.9133 18.9164 5.97118 19.2074C6.02906 19.4983 5.99935 19.7999 5.88582 20.074C5.77229 20.3481 5.58003 20.5824 5.33335 20.7472C5.08668 20.912 4.79667 21 4.5 21C4.10218 21 3.72064 20.842 3.43934 20.5607C3.15804 20.2794 3 19.8978 3 19.5ZM10.5 22.5C10.5 22.2033 10.588 21.9133 10.7528 21.6666C10.9176 21.42 11.1519 21.2277 11.426 21.1142C11.7001 21.0006 12.0017 20.9709 12.2926 21.0288C12.5836 21.0867 12.8509 21.2296 13.0607 21.4393C13.2704 21.6491 13.4133 21.9164 13.4712 22.2074C13.5291 22.4983 13.4994 22.7999 13.3858 23.074C13.2723 23.3481 13.08 23.5824 12.8334 23.7472C12.5867 23.912 12.2967 24 12 24C11.6022 24 11.2206 23.842 10.9393 23.5607C10.658 23.2794 10.5 22.8978 10.5 22.5ZM18 19.5C18 19.2033 18.088 18.9133 18.2528 18.6666C18.4176 18.42 18.6519 18.2277 18.926 18.1142C19.2001 18.0006 19.5017 17.9709 19.7926 18.0288C20.0836 18.0867 20.3509 18.2296 20.5607 18.4393C20.7704 18.6491 20.9133 18.9164 20.9712 19.2074C21.0291 19.4983 20.9994 19.7999 20.8858 20.074C20.7723 20.3481 20.58 20.5824 20.3334 20.7472C20.0867 20.912 19.7967 21 19.5 21C19.1022 21 18.7206 20.842 18.4393 20.5607C18.158 20.2794 18 19.8978 18 19.5ZM22.5 13.5C22.2033 13.5 21.9133 13.412 21.6666 13.2472C21.42 13.0824 21.2277 12.8481 21.1142 12.574C21.0006 12.2999 20.9709 11.9983 21.0288 11.7074C21.0867 11.4164 21.2296 11.1491 21.4393 10.9393C21.6491 10.7296 21.9164 10.5867 22.2074 10.5288C22.4983 10.4709 22.7999 10.5006 23.074 10.6142C23.3481 10.7277 23.5824 10.92 23.7472 11.1666C23.912 11.4133 24 11.7033 24 12C24 12.3978 23.842 12.7794 23.5607 13.0607C23.2794 13.342 22.8978 13.5 22.5 13.5ZM18 4.5C18 4.20333 18.088 3.91332 18.2528 3.66665C18.4176 3.41997 18.6519 3.22771 18.926 3.11418C19.2001 3.00065 19.5017 2.97094 19.7926 3.02882C20.0836 3.0867 20.3509 3.22956 20.5607 3.43934C20.7704 3.64912 20.9133 3.91639 20.9712 4.20737C21.0291 4.49834 20.9994 4.79994 20.8858 5.07403C20.7723 5.34811 20.58 5.58238 20.3334 5.7472C20.0867 5.91203 19.7967 6 19.5 6C19.1022 6 18.7206 5.84197 18.4393 5.56066C18.158 5.27936 18 4.89783 18 4.5Z" fill="#1DAFEC"/>
</svg>
