<?xml version="1.0" encoding="utf-8"?>
<!-- Generator: Adobe Illustrator 16.0.0, SVG Export Plug-In . SVG Version: 6.00 Build 0)  -->
<!DOCTYPE svg PUBLIC "-//W3C//DTD SVG 1.1//EN" "http://www.w3.org/Graphics/SVG/1.1/DTD/svg11.dtd">
<svg version="1.1" id="Layer_1" xmlns="http://www.w3.org/2000/svg" xmlns:xlink="http://www.w3.org/1999/xlink" x="0px" y="0px"
	 width="24px" height="80px" viewBox="0 0 24 80" enable-background="new 0 0 24 80" xml:space="preserve">
<path fill="#F4F8FC" d="M1.303,31C3.432,27.757,24,0,24,0v80C13.5,63.5,8.112,54.771,1.445,44.5
	C-0.032,42.549-0.825,34.243,1.303,31z"/>
<path fill="#B6B6B6" d="M10.014,43.197C9.58,42.775,5.347,38.34,5.347,38.34c-0.11-0.105-0.197-0.231-0.257-0.372S5,37.678,5,37.525
	s0.031-0.303,0.09-0.443s0.147-0.267,0.257-0.372c0,0,4.235-4.437,4.667-4.857c0.229-0.211,0.527-0.328,0.838-0.328
	s0.609,0.117,0.837,0.328c0.114,0.103,0.205,0.229,0.267,0.369c0.063,0.14,0.096,0.292,0.096,0.445s-0.033,0.305-0.096,0.445
	c-0.062,0.14-0.152,0.266-0.267,0.369l-3.886,4.043l3.886,4.043c0.114,0.103,0.206,0.229,0.269,0.369
	c0.063,0.141,0.094,0.292,0.094,0.446c0,0.153-0.031,0.306-0.094,0.445c-0.063,0.141-0.154,0.267-0.269,0.37
	c-0.228,0.21-0.526,0.327-0.837,0.327S10.242,43.408,10.014,43.197z"/>
<path fill="#B6B6B6" d="M15.963,43.197c-0.434-0.422-4.666-4.857-4.666-4.857c-0.11-0.105-0.197-0.231-0.258-0.372
	c-0.059-0.14-0.09-0.291-0.09-0.443s0.031-0.303,0.09-0.443c0.061-0.14,0.147-0.267,0.258-0.372c0,0,4.234-4.437,4.666-4.857
	c0.229-0.211,0.527-0.328,0.838-0.328s0.609,0.117,0.837,0.328c0.114,0.103,0.205,0.229,0.267,0.369
	C17.967,32.362,18,32.514,18,32.667s-0.033,0.305-0.096,0.445c-0.062,0.14-0.152,0.266-0.267,0.369l-3.886,4.043l3.886,4.043
	c0.114,0.103,0.206,0.229,0.269,0.369C17.969,42.077,18,42.229,18,42.383c0,0.153-0.031,0.306-0.094,0.445
	c-0.063,0.141-0.154,0.267-0.269,0.37c-0.228,0.21-0.526,0.327-0.837,0.327S16.191,43.408,15.963,43.197z"/>
</svg>
