<?xml version="1.0" encoding="utf-8"?>
<!-- Generator: Adobe Illustrator 16.0.0, SVG Export Plug-In . SVG Version: 6.00 Build 0)  -->
<!DOCTYPE svg PUBLIC "-//W3C//DTD SVG 1.1//EN" "http://www.w3.org/Graphics/SVG/1.1/DTD/svg11.dtd">
<svg version="1.1" id="Layer_1" xmlns="http://www.w3.org/2000/svg" xmlns:xlink="http://www.w3.org/1999/xlink" x="0px" y="0px"
	 width="24px" height="80px" viewBox="0 0 24 80" enable-background="new 0 0 24 80" xml:space="preserve">
<path fill="#FFFFFF" d="M22.555,44.5C15.888,54.771,10.5,63.5,0,80V0c0,0,20.567,27.757,22.696,31S24.032,42.549,22.555,44.5z"/>
<path fill="#B6B6B6" d="M12.148,43.523c-0.311,0-0.609-0.116-0.837-0.326c-0.115-0.104-0.206-0.229-0.269-0.37
	c-0.063-0.14-0.094-0.292-0.094-0.445s0.031-0.305,0.094-0.446c0.063-0.14,0.155-0.266,0.269-0.369l3.885-4.042l-3.885-4.043
	c-0.115-0.103-0.205-0.229-0.267-0.369c-0.063-0.14-0.096-0.292-0.096-0.445s0.033-0.305,0.096-0.445
	c0.062-0.14,0.153-0.266,0.267-0.369c0.228-0.211,0.526-0.328,0.837-0.328s0.609,0.117,0.837,0.328
	c0.433,0.42,4.667,4.857,4.667,4.857c0.11,0.105,0.198,0.232,0.258,0.372c0.059,0.14,0.09,0.29,0.09,0.443s-0.03,0.302-0.09,0.443
	c-0.061,0.141-0.147,0.267-0.258,0.372c0,0-4.232,4.436-4.667,4.857C12.758,43.408,12.459,43.523,12.148,43.523z"/>
<path fill="#B6B6B6" d="M6.2,43.525c-0.312,0-0.609-0.117-0.837-0.327c-0.115-0.104-0.206-0.229-0.27-0.37
	C5.031,42.689,5,42.536,5,42.383c0-0.154,0.031-0.306,0.094-0.447c0.063-0.14,0.155-0.266,0.27-0.369l3.886-4.042l-3.886-4.043
	c-0.115-0.103-0.205-0.229-0.268-0.369C5.033,32.972,5,32.82,5,32.667s0.033-0.305,0.096-0.445c0.062-0.14,0.152-0.266,0.266-0.369
	c0.229-0.211,0.527-0.328,0.838-0.328s0.609,0.117,0.838,0.328c0.432,0.42,4.666,4.857,4.666,4.857
	c0.111,0.105,0.197,0.232,0.258,0.372c0.059,0.14,0.09,0.291,0.09,0.443s-0.031,0.303-0.09,0.443
	c-0.061,0.141-0.148,0.267-0.258,0.372c0,0-4.232,4.436-4.666,4.857C6.809,43.408,6.512,43.525,6.2,43.525z"/>
</svg>
