<svg width="16" height="16" viewBox="0 0 16 16" fill="none" xmlns="http://www.w3.org/2000/svg">
<circle cx="8" cy="8" r="8" fill="#FFDAD6"/>
<path d="M11.629 10.0196L11.629 5.30557C11.629 5.12879 11.5588 4.95927 11.4338 4.83427C11.3088 4.70927 11.1393 4.63903 10.9625 4.639L6.24843 4.639C6.15992 4.63747 6.07199 4.65357 5.98978 4.68638C5.90756 4.71919 5.83269 4.76804 5.76956 4.83009C5.70642 4.89214 5.65627 4.96614 5.62204 5.04777C5.58781 5.12941 5.57018 5.21705 5.57018 5.30557C5.57018 5.39409 5.58781 5.48173 5.62204 5.56337C5.65627 5.645 5.70642 5.719 5.76956 5.78105C5.83269 5.8431 5.90756 5.89196 5.98977 5.92476C6.07199 5.95757 6.15992 5.97367 6.24843 5.97214L9.3531 5.97214L4.83422 10.491C4.7092 10.616 4.63896 10.7856 4.63896 10.9624C4.63896 11.1392 4.7092 11.3088 4.83422 11.4338C4.95924 11.5589 5.12881 11.6291 5.30562 11.6291C5.48244 11.6291 5.652 11.5589 5.77703 11.4338L10.2959 6.91495V10.0196C10.299 10.1944 10.3705 10.361 10.4952 10.4835C10.6199 10.606 10.7877 10.6747 10.9625 10.6747C11.1373 10.6747 11.3051 10.606 11.4298 10.4835C11.5544 10.361 11.626 10.1944 11.629 10.0196Z" fill="#FF5041"/>
</svg>
