<svg width="513" height="607" viewBox="0 0 513 607" fill="none" xmlns="http://www.w3.org/2000/svg">
<g clip-path="url(#clip0)">
<path d="M430.976 157.534C477.059 199.048 494.061 279.971 476.565 351.539C458.947 423.108 406.939 485.335 335.843 526.822C264.747 568.207 174.692 589.028 114.552 556.51C54.412 523.992 24.4908 438.378 9.33047 354.376C-5.70121 270.366 -5.94496 188.082 34.0989 147.922C74.1427 107.897 154.379 109.867 232.104 111.837C309.856 113.928 385.014 116.027 430.976 157.534Z" fill="#F1F1F1"/>
<path d="M393.315 580.994H378.365V590.971H393.315V580.994Z" fill="#E49D75"/>
<path d="M467.06 562.553L456.147 571.366L463.958 581.034L474.872 572.221L467.06 562.553Z" fill="#E49D75"/>
<path d="M403.262 173.536H402.578C399.5 173.536 397.006 176.03 397.006 179.107V181.97C397.006 185.047 399.5 187.541 402.578 187.541H403.262C406.34 187.541 408.835 185.047 408.835 181.97V179.107C408.835 176.03 406.34 173.536 403.262 173.536Z" fill="#E49D75"/>
<path d="M407.887 384.085C409.918 388.742 425.491 482.194 427.78 491.034C430.068 499.874 466.679 557.505 469.171 560.951C469.936 565.933 458.629 574.36 453.266 574.36C447.903 570.123 385.271 479.398 383.768 475.371C382.265 471.343 377.221 374.96 407.887 384.085Z" fill="#A9D6D9"/>
<path d="M342.499 368.604C341.788 372.462 352.371 460.662 353.685 472.508C354.998 484.353 375.277 579.782 377.072 582.165C378.866 584.547 392.516 584.033 394.873 582.842C397.229 581.65 390.268 483.338 390.268 476.21C390.268 469.082 408.55 403.342 406.201 384.301C403.851 365.26 342.499 368.604 342.499 368.604Z" fill="#D0EDEF"/>
<path d="M394.392 261.688H380.098V286.557H394.392V261.688Z" fill="#E49D75"/>
<path d="M306.132 93.3102H79.4851C71.101 93.3102 64.3044 100.105 64.3044 108.486V335.064C64.3044 343.445 71.101 350.24 79.4851 350.24H306.132C314.516 350.24 321.312 343.445 321.312 335.064V108.486C321.312 100.105 314.516 93.3102 306.132 93.3102Z" fill="#E0E0E0"/>
<path d="M208.873 210.379C212.399 207.144 214.866 202.92 215.95 198.26C217.034 193.6 216.686 188.721 214.949 184.262C213.213 179.804 210.17 175.973 206.22 173.272C202.269 170.572 197.594 169.127 192.808 169.127C188.022 169.127 183.348 170.572 179.397 173.272C175.446 175.973 172.404 179.804 170.667 184.262C168.931 188.721 168.582 193.6 169.667 198.26C170.751 202.92 173.218 207.144 176.744 210.379L158.442 284.574H227.154L208.873 210.379Z" fill="#A4A4A4"/>
<path d="M110.3 93.3102C110.497 71.5637 119.277 50.7749 134.729 35.467C150.18 20.1591 171.054 11.5708 192.808 11.5708C214.562 11.5708 235.436 20.1591 250.888 35.467C266.34 50.7749 275.12 71.5637 275.317 93.3102" stroke="#E0E0E0" stroke-width="32" stroke-linecap="round" stroke-linejoin="round"/>
<path d="M385.4 265.777C396.245 265.777 405.036 253.957 405.036 239.378C405.036 224.798 396.245 212.979 385.4 212.979C374.555 212.979 365.764 224.798 365.764 239.378C365.764 253.957 374.555 265.777 385.4 265.777Z" fill="#E49D75"/>
<path d="M382.726 281.433C358.919 281.433 337.698 347.458 341.774 369.369C342.98 375.84 399.951 388.897 408.659 387.07C411.753 382.859 424.381 281.433 382.726 281.433Z" fill="#F2C94C"/>
<path d="M376.618 318.209C387.276 310.479 370.24 273.019 366.258 272.376C358.925 271.192 340.691 285.237 341.266 291.14C341.571 294.254 365.764 326.081 376.618 318.209Z" fill="#F2DA91"/>
<path d="M344.645 288.358C341.774 284.912 334.597 268.051 333.812 264.051C333.026 260.05 331.103 199.921 331.103 196.361C331.103 192.8 326.363 183.818 326.363 178.457C326.363 173.096 331.821 165.826 334.597 165.731C337.563 167.836 341.679 180.183 341.869 183.331C342.905 176.562 347.807 175.005 349.148 175.005C350.489 175.005 350.313 185.463 344.76 192.503C344.957 197.674 351.531 248.895 352.594 251.86C353.657 254.824 365.764 274.258 365.737 275.977C365.71 277.697 344.645 288.358 344.645 288.358Z" fill="#E49D75"/>
<path d="M491.05 192.654L250.805 159.84L249.867 166.701L490.112 199.515L491.05 192.654Z" fill="#A4A4A4"/>
<path d="M264.557 168.704L249.865 166.698L247.149 186.57L261.841 188.576L264.557 168.704Z" fill="#A4A4A4"/>
<path d="M278.708 170.64L270.805 169.561L268.089 189.433L275.992 190.512L278.708 170.64Z" fill="#A4A4A4"/>
<path d="M409.471 226.083C408.909 222.875 408.401 199.624 409.268 196.341C410.135 193.058 412.477 190.661 413.527 185.761C413.886 184.075 413.317 178.24 412.173 177.997C409.708 177.469 409.566 180.23 409.241 182.261C407.981 189.186 405.415 187.92 404.23 187.758C403.045 187.595 398.976 186.891 397.642 186.857C396.308 186.823 399.707 189.565 398.671 193.944C397.859 197.39 394.04 220.343 393.254 224.1C396.105 224.215 409.471 226.083 409.471 226.083Z" fill="#E49D75"/>
<path d="M292.195 172.476L284.292 171.396L281.576 191.268L289.479 192.348L292.195 172.476Z" fill="#A4A4A4"/>
<path d="M292.19 172.481L249.865 166.7L248.903 173.742L291.228 179.523L292.19 172.481Z" fill="#A4A4A4"/>
<path d="M497.461 178.755C493.94 178.275 490.356 178.85 487.163 180.406C483.969 181.962 481.308 184.43 479.517 187.497C477.725 190.565 476.883 194.094 477.098 197.64C477.312 201.185 478.573 204.587 480.721 207.417C482.87 210.246 485.808 212.375 489.167 213.535C492.525 214.695 496.152 214.834 499.589 213.934C503.026 213.034 506.119 211.136 508.477 208.479C510.835 205.822 512.353 202.526 512.838 199.008C513.16 196.668 513.018 194.288 512.419 192.004C511.821 189.719 510.778 187.575 509.349 185.694C507.921 183.813 506.136 182.232 504.096 181.041C502.056 179.85 499.801 179.073 497.461 178.755ZM507.15 198.209C506.822 200.606 505.791 202.852 504.186 204.663C502.581 206.474 500.475 207.768 498.134 208.383C495.794 208.997 493.323 208.904 491.036 208.114C488.748 207.325 486.746 205.875 485.282 203.948C483.819 202.022 482.96 199.704 482.814 197.289C482.669 194.874 483.242 192.47 484.463 190.381C485.684 188.292 487.498 186.612 489.674 185.554C491.85 184.495 494.291 184.105 496.689 184.434C499.903 184.874 502.811 186.573 504.772 189.156C506.734 191.739 507.589 194.995 507.15 198.209Z" fill="#A4A4A4"/>
<path d="M344.835 192.448C343.941 188.949 342.201 185.889 341.917 183.256V183.337C341.727 180.183 337.61 167.836 334.644 165.738C331.868 165.833 326.411 173.103 326.411 178.464C326.411 182.396 328.984 188.279 330.352 192.536H344.808L344.835 192.448Z" fill="#E49D75"/>
<path d="M367.707 222.841C367.707 231.972 374.153 237.604 384.371 240.745C384.371 253.24 386.301 253.789 386.301 261.397C386.301 277.792 383.504 269.594 383.504 297.902C383.504 314.973 390.654 324.26 403.817 324.26C419.736 324.26 428.87 307.426 428.87 298.356C428.87 286.848 417.481 266.853 416.682 250.249C415.578 227.911 408.631 209.222 391.21 209.222C376.327 209.222 367.707 214.759 367.707 222.841Z" fill="black"/>
<path d="M385.38 248.164C388.297 248.164 390.661 245.8 390.661 242.884C390.661 239.968 388.297 237.604 385.38 237.604C382.463 237.604 380.098 239.968 380.098 242.884C380.098 245.8 382.463 248.164 385.38 248.164Z" fill="#E49D75"/>
<path fill-rule="evenodd" clip-rule="evenodd" d="M474.845 570.278L483.309 581.826L465.603 606.871L448.892 606.98L449.109 598.512L455.819 595.547L461.784 580.831L474.845 570.278Z" fill="black"/>
<path d="M394.317 590.139V607H344.74V599.534L377.451 590.139H394.317Z" fill="black"/>
</g>
<defs>
<clipPath id="clip0">
<rect width="513" height="607" fill="white"/>
</clipPath>
</defs>
</svg>
