<svg width="18" height="17" viewBox="0 0 18 17" fill="none" xmlns="http://www.w3.org/2000/svg">
<path d="M16.9071 13.8972C16.4233 12.764 15.7006 11.7487 14.7882 10.9207C13.8758 10.0926 12.7954 9.4714 11.6208 9.09946C12.418 8.00536 12.8548 6.39971 12.8719 4.4363C12.9013 1.12141 10.1679 0.220607 8.7192 0.20886C7.27054 0.197112 4.52326 1.04879 4.49336 4.36422C4.47627 6.32709 4.88476 7.93915 5.66222 9.0482C4.48148 9.39953 3.39056 10.0017 2.46409 10.8137C1.53761 11.6256 0.797446 12.6281 0.294218 13.7525L0 14.4205L0.675472 14.6981C3.20372 15.6507 5.87689 16.1617 8.57823 16.2087C11.2808 16.2092 13.9634 15.7452 16.5088 14.837L17.1885 14.57L16.906 13.8956L16.9071 13.8972ZM8.70104 1.63242C8.98512 1.6383 11.4707 1.75897 11.4473 4.42402C11.4286 6.55723 10.8487 8.1789 9.85816 8.87466L8.63002 9.73489L7.42272 8.85437C6.44395 8.14099 5.89289 6.50917 5.91212 4.37596C5.93561 1.71038 8.42178 1.63349 8.69891 1.63296L8.70104 1.63242ZM8.59425 14.7852C6.332 14.7378 4.08957 14.3521 1.94152 13.6409C2.50283 12.7129 3.25906 11.9179 4.15788 11.311C5.05671 10.7041 6.07667 10.2996 7.14719 10.1258L8.6343 9.82619L10.1161 10.1508C11.1835 10.3438 12.1963 10.766 13.0847 11.3885C13.973 12.011 14.7157 12.8188 15.2614 13.7562C13.1023 14.4317 10.8539 14.7786 8.59158 14.7852H8.59425Z" fill="#B6B6B6"/>
</svg>
