<svg width="20" height="20" viewBox="0 0 20 20" fill="none" xmlns="http://www.w3.org/2000/svg">
<path d="M18.5547 7.64295V5.89229C18.5547 4.3185 17.7018 2.8753 16.3237 2.10541C16.2722 1.33803 15.7281 0.704631 14.9647 0.543342C11.5756 -0.17283 8.42035 -0.172908 5.035 0.543186C4.27176 0.704631 3.72781 1.33799 3.67629 2.10518C3.04047 2.46053 2.50176 2.97033 2.11141 3.58924C1.67562 4.28006 1.44531 5.07643 1.44531 5.89229V7.64295C0.570469 8.27494 0 9.30334 0 10.4626V11.7517C0 13.6687 1.55957 15.2282 3.47656 15.2282H3.7123C3.79754 15.4465 4.00934 15.6013 4.25777 15.6013C4.58137 15.6013 4.84371 15.339 4.84371 15.0154V7.19885C4.84371 6.87526 4.58137 6.61291 4.25777 6.61291C4.00934 6.61291 3.79754 6.7678 3.7123 6.98604H3.47656C3.18004 6.98604 2.89215 7.02342 2.61719 7.09362V5.89229C2.61719 4.83295 3.14031 3.86432 4.00578 3.27721C4.08852 3.38823 4.18539 3.49088 4.2966 3.58264C4.61078 3.84194 4.9866 3.97721 5.38016 3.97721C5.49125 3.97721 5.60379 3.96643 5.71664 3.94463C8.63906 3.38014 11.3612 3.38014 14.2834 3.94459C14.7963 4.04365 15.3007 3.91518 15.7034 3.58268C15.8145 3.49096 15.9114 3.38838 15.9941 3.27744C16.8584 3.86569 17.3829 4.83932 17.3829 5.89229V7.09366C17.1079 7.02346 16.82 6.98608 16.5235 6.98608H16.2877C16.2025 6.76783 15.9907 6.61295 15.7423 6.61295C15.4187 6.61295 15.1563 6.8753 15.1563 7.19889V15.0154C15.1563 15.339 15.4187 15.6013 15.7423 15.6013C15.9907 15.6013 16.2025 15.4465 16.2877 15.2283H16.5234C16.8158 15.2283 17.0998 15.1918 17.3713 15.1235C17.2459 16.5375 16.0555 17.6501 14.6094 17.6501H12.3992C12.1573 16.9681 11.5061 16.4782 10.7422 16.4782H9.21875C8.24949 16.4782 7.46094 17.2668 7.46094 18.236C7.46094 19.2053 8.24949 19.9938 9.21875 19.9938H10.7422C11.5061 19.9938 12.1573 19.504 12.3992 18.822H14.6094C16.7848 18.822 18.5547 17.0521 18.5547 14.8767V14.5713C19.4295 13.9393 20 12.9109 20 11.7517V10.4626C20 9.30334 19.4295 8.27494 18.5547 7.64295ZM3.67184 8.15791V14.0563H3.47656C2.20574 14.0563 1.17188 13.0225 1.17188 11.7517V10.4626C1.17188 9.19178 2.20574 8.15791 3.47656 8.15791H3.67184ZM15.1562 2.25705C15.1562 2.43287 15.0931 2.5669 14.9574 2.67885C14.8219 2.79073 14.6783 2.82733 14.5057 2.79397C11.4318 2.20022 8.5684 2.20026 5.49441 2.79397C5.32164 2.82733 5.17813 2.79073 5.04254 2.67881C4.90695 2.5669 4.84379 2.43287 4.84379 2.25705V2.22471C4.84379 1.95951 5.01809 1.74451 5.2775 1.68963C8.49754 1.00854 11.4987 1.00862 14.7225 1.68983C14.9819 1.74471 15.1562 1.95975 15.1562 2.22494V2.25705ZM10.7422 18.822H9.21875C8.89566 18.822 8.63281 18.5591 8.63281 18.236C8.63281 17.913 8.89566 17.6501 9.21875 17.6501H10.7422C11.0653 17.6501 11.3281 17.913 11.3281 18.236C11.3281 18.5591 11.0653 18.822 10.7422 18.822ZM18.8281 11.7517C18.8281 13.0225 17.7943 14.0563 16.5234 14.0563H16.3282V8.15791H16.5234C17.7943 8.15791 18.8281 9.19178 18.8281 10.4626V11.7517Z" fill="#209DE2"/>
</svg>
